<?xml version="1.0" standalone="no"?>
<!DOCTYPE svg PUBLIC "-//W3C//DTD SVG 1.1//EN" "http://www.w3.org/Graphics/SVG/1.1/DTD/svg11.dtd" >
<svg>
<metadata>
Created by FontForge 20120731 at Mon Jan 15 16:16:00 2018
 By www-data

Created by iconfont

</metadata>
<defs>
<font id="WBficon" horiz-adv-x="1024" >
  <font-face 
    font-family="WBficon"
    font-weight="400"
    font-stretch="normal"
    units-per-em="1024"
    panose-1="2 0 5 3 0 0 0 0 0 0"
    ascent="896"
    descent="-128"
    x-height="712"
    cap-height="710"
    bbox="-1 -129.265 1178.12 896.053"
    underline-thickness="0"
    underline-position="10"
    unicode-range="U+0022-E6FF"
  />
<missing-glyph 
 />
    <glyph glyph-name=".notdef" 
 />
    <glyph glyph-name="A" unicode="A" 
d="M647 293q-24 0 -39.5 -16t-16.5 -40v-170h-82q-8 -1 -13.5 -7t-5.5 -16q0 -12 9 -18l130 -130q8 -8 18 -7v0q24 1 39.5 16.5t16.5 39.5v292q-1 24 -16.5 40t-39.5 16zM967 156l-130 130q-8 7 -18 7v0q-24 0 -39.5 -16t-16.5 -40v-292q1 -24 16.5 -39.5t39.5 -15.5
t39.5 15.5t16.5 39.5v170h82q8 1 13.5 7t5.5 16q0 12 -9 18zM449 -55q-22 22 -33 51h-113q-24 -1 -40 -17t-16 -40t16 -40t40 -17h209zM783 340l-2 2q-38 40 -95 52q10 20 16.5 40.5t6.5 39.5q-3 107 -76 178.5t-183 74.5q-111 -3 -184 -74.5t-76 -178.5q7 -70 56 -137.5
t56 -71.5q1 -2 24 -25.5t57 -47.5q24 -29 67 -29q15 1 28 5l-5 -2q-10 -6 -18 -15q-22 -21 -32.5 -47t-10.5 -54h-48q-49 1 -82 33t-34 80v-1l-11 10q-10 7 -81 104t-81 198q4 155 109.5 258.5t265.5 107.5q159 -4 265 -107.5t110 -258.5q-1 -32 -12.5 -66t-29.5 -68z" />
    <glyph glyph-name="aa" unicode="a" 
d="M688 423l-278 287q-16 15 -36.5 15t-36 -16t-15.5 -37t15 -37l243 -251l-243 -251q-15 -17 -15 -38t15.5 -37t36 -16t36.5 15l278 287q15 17 15 39.5t-15 39.5z" />
    <glyph glyph-name="b" unicode="b" 
d="M445 384l243 251q15 16 15 37t-15.5 37t-36.5 16t-37 -15l-277 -287q-16 -17 -16 -39t16 -40l277 -286q16 -16 37 -16t36.5 16t15.5 37t-15 38z" />
    <glyph glyph-name="B" unicode="B" 
d="M986 710q-20 19 -46 19t-46 -19l-510 -516l-254 260q-20 19 -46 19t-45.5 -19.5t-19.5 -46t19 -46.5l296 -304q22 -21 50 -19q28 -2 50 19l552 560q19 20 19 46.5t-19 46.5z" />
    <glyph glyph-name="c" unicode="c" 
d="M838 559q-16 15 -37 15t-38 -15l-251 -243l-251 243q-16 15 -37 15t-37 -15.5t-16 -36t15 -36.5l287 -278q17 -15 39 -15t40 15l286 278q16 16 16 36.5t-16 36.5z" />
    <glyph glyph-name="C" unicode="C" 
d="M512 896q-217 -5 -362 -150t-150 -362q5 -218 150 -362.5t362 -150.5q218 6 362.5 150.5t150.5 362.5q-6 217 -150.5 362t-362.5 150zM512 -43q-181 4 -301.5 124.5t-125.5 302.5q5 181 125.5 301.5t301.5 125.5q182 -5 302.5 -125.5t124.5 -301.5q-4 -182 -124.5 -302.5
t-302.5 -124.5zM512 469q-65 128 -157 109.5t-98 -158.5q17 -78 128.5 -180.5t127.5 -111.5q16 9 128.5 112t126.5 181q-14 140 -103 157t-153 -109z" />
    <glyph glyph-name="d" unicode="d" 
d="M838 282l-286 277q-18 16 -40 16t-39 -16l-287 -277q-15 -16 -15 -37t16 -36.5t37 -15.5t37 15l251 243l251 -243q17 -15 38 -15t37 15.5t16 36.5t-16 37z" />
    <glyph glyph-name="e" unicode="e" 
d="M997 239q-1 31 -21.5 52t-51.5 21q-28 0 -48 -17t-25 -43q-41 -104 -131.5 -167t-207.5 -65q-155 4 -258 106.5t-107 257.5q4 155 107 258t258 107q99 -1 180 -47.5t130 -125.5h163q-59 142 -184.5 229t-288.5 90q-217 -6 -361 -150t-150 -361q6 -217 150 -361t361 -149
q168 3 296 95t184 242h-1q6 13 6 28zM985 823q-15 0 -26 -11v1l-290 -290l1 -1q-12 -10 -12 -26.5t10.5 -27t26.5 -11.5h289q17 1 28 11.5t11 27.5v289q0 16 -11 27t-27 11z" />
    <glyph glyph-name="o" unicode="o" 
d="M692 308q-20 0 -32 -16h-1q-23 -37 -61 -59t-85 -22t-85 22t-61 60l-1 -1q-12 16 -33 16q-17 0 -28.5 -11.5t-12.5 -29.5q0 -13 7 -23v0v0v0q35 -53 90.5 -84t123 -31t123 31t90.5 83q7 11 8 24q-1 18 -12.5 29.5t-29.5 11.5zM513 844q-196 -5 -326 -135t-135 -326
q5 -196 135 -325.5t326 -134.5q196 5 325.5 134.5t134.5 325.5q-5 196 -134.5 326t-325.5 135zM513 25q-152 4 -253.5 105t-104.5 253q3 152 104.5 253.5t253.5 104.5q152 -3 253 -104.5t105 -253.5q-4 -152 -105 -253t-253 -105zM362 441q28 1 47 20t19 47.5t-19 47.5
t-47.5 19t-47.5 -19t-19 -47.5t19 -47.5t48 -20zM664 434q29 1 48 20t19 47.5t-19 47.5t-48 19t-47.5 -19t-18.5 -47.5t18.5 -47.5t47.5 -20z" />
    <glyph glyph-name="one" unicode="1" 
d="M1025 803v27q0 6 -1 11q-2 13 -11 22q-11 14 -28 15q-5 1 -9 1h-244q-21 0 -34.5 -12.5t-13.5 -31t13.5 -30.5t34.5 -12h132l-184 -184q-54 48 -122.5 74.5t-146.5 26.5q-174 -4 -290 -120t-120 -291q4 -174 120 -290t290 -120q175 4 290.5 120t120.5 290
q-1 64 -19 122.5t-52 107.5l188 187v-130q0 -21 12.5 -34.5t30.5 -13.5t30.5 13.5t12.5 34.5v216h1zM410 14q-122 4 -202.5 84t-83.5 202q3 121 83.5 201.5t202.5 83.5q121 -3 201.5 -83.5t83.5 -201.5q-3 -122 -83.5 -202t-201.5 -84z" />
    <glyph glyph-name="p" unicode="p" 
d="M640 461q33 0 54.5 22t21.5 54.5t-21.5 54t-54 21.5t-54.5 -21.5t-22 -54t22 -54.5t54 -22zM922 768h-820q-21 -1 -35.5 -15.5t-15.5 -35.5v-666q1 -22 15.5 -36.5t35.5 -15.5h820q22 1 36.5 15.5t14.5 36.5v666q0 21 -14.5 35.5t-36.5 15.5zM154 102v105l143 143
l179 -181q11 -11 26 -13.5t30 2.5q12 10 65 61l59 59l176 -176h-678zM871 208l-89 89l-89 90q-16 15 -36.5 15t-35.5 -15l-108 -108l-180 181q-16 15 -36.5 15t-36.5 -15l-106 -108v313h717v-457z" />
    <glyph glyph-name="plus" unicode="+" 
d="M939 490h-341v342h-171v-342h-342v-170h342v-342h171v342h341v170z" />
    <glyph glyph-name="quotedbl" unicode="&#x22;" 
d="M1024 -128zM1075 -128zM1024 -128zM870 282h-153v205h153q22 0 36.5 14.5t14.5 36t-14.5 36t-36.5 15.5h-153v153q-1 22 -15.5 36.5t-36 14.5t-36 -14.5t-15.5 -36.5v-153h-205v153q0 22 -14.5 36.5t-36 14.5t-36 -14.5t-15.5 -36.5v-153h-153q-22 -1 -36.5 -15.5
t-14.5 -36t14.5 -36t36.5 -14.5h153v-205h-153q-22 -1 -36.5 -15.5t-14.5 -36t14.5 -36t36.5 -15.5h153v-153q1 -22 15.5 -36.5t36 -14.5t36 14.5t14.5 36.5v153h205v-153q1 -22 15.5 -36.5t36 -14.5t36 14.5t15.5 36.5v153h153q22 1 36.5 15.5t14.5 36t-14.5 36t-36.5 15.5
zM409 282v205h205v-205h-205z" />
    <glyph glyph-name="six" unicode="6" 
d="M512 853l-512 -512h171v-427h256v342h171v-342h256v427h171z" />
    <glyph glyph-name="w" unicode="w" 
d="M564 -4q-59 -1 -130.5 17.5t-142.5 76.5q-59 52 -77.5 101t-14.5 84q2 39 19.5 72.5t46.5 53.5q41 28 93.5 32t99.5 -23q21 14 50 22t63 3q67 -12 106.5 -59t41.5 -115q0 -39 -21 -76t-58 -62q-18 -12 -38 -8t-32.5 22t-8.5 38t21.5 32t26 27t8.5 26q-1 31 -17 49.5
t-46 24.5q-24 2 -39.5 -9.5t-16.5 -13.5q-15 -19 -39.5 -19.5t-40.5 18.5q-20 22 -48 21t-47 -14q-6 -4 -13.5 -16t-8.5 -31q-2 -51 57 -102q71 -57 142.5 -65t122.5 -1l12 1q40 2 109.5 37.5t103.5 98.5q18 40 17 67t-7 40q-10 23 -28 30q-99 34 -77 118q2 10 3 16v7
q-2 20 -9 25t-14.5 5.5t-30.5 -4t-72 -23.5l-7 -3q-30 -9 -48 -3t-26 15q-22 24 -19.5 51t8.5 40q3 10 2 15.5t-2 5.5q-8 11 -55 -2t-133 -67q-69 -49 -109 -97.5t-46 -58.5q-8 -11 -19.5 -39.5t-15.5 -74.5q-3 -56 8.5 -90.5t25.5 -53.5q2 -4 12 -12q17 -14 20 -34
t-10.5 -37.5t-33.5 -20t-38 9.5q-23 18 -36 37q-59 88 -50 208q5 62 21 102.5t30 59.5q10 18 57.5 74t127.5 112q225 148 318 55q4 -2 16.5 -22t14.5 -56q26 8 51 12.5t48 2.5q51 -6 82 -39.5t34 -87.5q1 -3 0.5 -15.5t-4.5 -30.5l9 -3q30 -10 53 -32.5t36 -54.5
q18 -42 15.5 -91t-26.5 -99q-50 -95 -144 -143.5t-155 -52.5l-12 -1q-27 -2 -66 -3z" />
    <glyph glyph-name="three" unicode="3" 
d="M768 640v170h-512v-170h-171v-683h854v683h-171zM683 640h-341v85h341v-85z" />
    <glyph glyph-name="u" unicode="u" 
d="M845 790q-10 8 -20.5 10t-17.5 0l-456 -64q-4 -1 -15 -7t-21 -19q-2 -2 -5 -8.5t-3 -17.5v-473q-35 13 -77 13q-76 -1 -126.5 -37t-52.5 -91q2 -54 52.5 -90t126.5 -38q62 1 107 27.5t65 66.5q6 11 7 25v349l358 51v-225q-35 13 -77 13q-76 -1 -126.5 -37t-52.5 -91
q2 -54 52.5 -90t126.5 -37q62 1 107 27t64 66q7 11 8 25v610q0 13 -7 23.5t-17 18.5zM230 47q-35 1 -57.5 14.5t-22.5 34.5t22.5 35t57.5 14t58 -14t23 -35t-23 -34.5t-58 -14.5zM409 540v101l358 50v-101zM690 98q-35 1 -58 15t-23 34.5t23 34.5t58 14t58 -14t23 -34.5
t-23 -34.5t-58 -15z" />
    <glyph glyph-name="V" unicode="V" 
d="M706 853h-387h-233v-704q2 -100 68 -166t165 -69h387q99 3 165 69t68 166v704h-233zM569 77h-113l-227 456h170l113 -285l114 285h170zM854 682h-683v86h683v-86z" />
    <glyph glyph-name="Y" unicode="Y" 
d="M1024 640l-128 128l-513 -512l-256 256l-128 -128l384 -385l128 128z" />
    <glyph glyph-name="z" unicode="z" 
d="M678 439h-111v170q0 24 -16.5 40.5t-40.5 16.5t-40.5 -16.5t-16.5 -40.5v-227q0 -24 16 -40t41 -17h168q24 1 40 17t16 40t-16 40t-40 17zM679 271q-23 0 -39 -16t-16 -39v-168h-81q-8 -1 -13.5 -7t-5.5 -16q0 -12 9 -18l128 -128q8 -8 18 -7v0q24 0 39.5 16t15.5 39v289
q0 23 -15.5 39t-39.5 16zM996 136l-129 128q-8 8 -17 7h-1q-23 0 -39 -16t-16 -39v-289q0 -23 16 -39t39.5 -16t39 16t16.5 39v169h80q8 0 13.5 6t6.5 16q-1 12 -9 18zM850 369v-5v-1q0 -22 14 -38q10 -11 25 -16l8 -2q5 -1 10 -1q18 0 32 10q6 4 10 9q11 13 14 29l1 28
q-5 193 -133 321t-321 132q-192 -4 -320 -132t-133 -321q3 -163 99 -282.5t248 -157.5l8 -2q5 -1 10 -1q18 0 32 10q11 7 17.5 19.5t6.5 27t-6.5 27t-17.5 20.5q-7 4 -15 7l-7 2q-115 28 -187 117.5t-75 212.5q4 144 100 240t240 100q145 -4 241 -100t100 -240z" />
    <glyph glyph-name="zero" unicode="0" 
d="M609 896q-176 -4 -293.5 -121.5t-121.5 -293.5q0 -70 21.5 -133t60.5 -115l-60 -60l-109 110q-2 4 -28 16.5t-60 -16.5q-28 -34 -16 -60t16 -27l110 -110l-110 -109q-4 -2 -16 -27.5t16 -58.5q34 -28 59.5 -16t26.5 16l110 109l109 -109q2 -4 28 -16.5t60 16.5
q28 34 16 59.5t-16 27.5l-110 109l60 60q52 -39 114.5 -60.5t132.5 -21.5q177 5 294 122t122 294q-5 176 -122 293.5t-294 121.5zM605 191q-122 4 -203.5 85t-84.5 203q3 122 84.5 203t203.5 84q122 -3 203 -84t84 -203q-3 -122 -84 -203t-203 -85z" />
    <glyph glyph-name="Z" unicode="Z" 
d="M85 213l342 -342v257h512v170h-854v-85zM598 896v-256h-513v-171h854v85z" />
    <glyph glyph-name="x" unicode="x" 
d="M713 639q-13 12 -30 12t-30 -13l-319 -315q-34 -38 -33.5 -86t36.5 -85q38 -36 88 -35.5t89 36.5l317 311q61 63 61 145t-61 146q-64 60 -147.5 59.5t-148.5 -60.5l-316 -310q-86 -89 -86.5 -204t85.5 -203q89 -83 204 -84t205 80l6 4l177 174q12 13 12 29.5t-12.5 28.5
t-29 12t-29.5 -12l-178 -175q-65 -60 -148.5 -60t-147.5 60q-61 63 -61 145t62 146v0v1l316 310q39 36 89 36t89 -36q36 -38 36 -87t-36 -87l-319 -314q-13 -10 -28.5 -10t-28 12t-12.5 29t12 30v0l316 311q13 13 13 29.5t-12 29.5z" />
    <glyph glyph-name="X" unicode="X" 
d="M797 180l-202 201l202 202q16 18 16 40.5t-17 39.5t-39.5 17t-40.5 -16l-201 -202l-202 202q-18 16 -40.5 16t-39.5 -17t-17 -40t16 -40l202 -202l-202 -201q-16 -18 -16 -40.5t17 -39.5t39.5 -17t40.5 16l202 202l201 -202q18 -16 40.5 -16t39.5 17t17 39.5t-16 40.5z
" />
    <glyph glyph-name="D" unicode="D" 
d="M512 640q109 -3 181.5 -75.5t74.5 -180.5q-2 -109 -74.5 -181.5t-181.5 -74.5q-109 2 -181 74.5t-75 181.5q3 108 75 180.5t181 75.5z" />
    <glyph glyph-name="O" unicode="O" 
d="M937 625l-181 181q-26 25 -60.5 25t-60.5 -25l-241 -241l60 -61l181 181q26 25 60.5 25t60.5 -25l60 -60q25 -26 25 -60t-25 -61l-181 -181l60 -60l242 241q25 27 25 61t-25 60zM394 82q-27 -25 -61 -25t-60 25l-61 60q-25 26 -25 60.5t25 60.5l182 181l-61 60l-241 -241
q-25 -26 -25 -60.5t25 -60.5l181 -181q26 -25 60 -25t61 25l241 241l-60 61zM756 565l-61 60l-422 -423l60 -60z" />
    <glyph glyph-name="f" unicode="f" 
d="M949 31l-166 166q37 50 57 110t21 127q-5 169 -117 281.5t-282 116.5q-169 -4 -281.5 -116.5t-116.5 -281.5q4 -170 116.5 -282.5t281.5 -116.5q67 0 127 20.5t110 57.5l166 -166q14 -14 36 -11.5t40 20.5t20 39t-12 36zM462 149q-121 3 -201 83.5t-83 201.5
q3 120 83 200.5t201 83.5q121 -3 201.5 -83.5t83.5 -200.5q-3 -121 -83.5 -201.5t-201.5 -83.5z" />
    <glyph glyph-name="five" unicode="5" 
d="M513 214l-171 -172l-171 171l171 171v85l-89 89l-252 -252l-1 -178l256 -257l179 2l251 251l-90 90h-83zM768 896l-178 -1l-252 -252l89 -89h85l171 171l171 -171l-170 -170v-87l88 -87l251 251l2 179z" />
    <glyph glyph-name="four" unicode="4" 
d="M512 783l-511 -292v-73h73v-438h73v438h73v-292l292 -146l292 146v292h219v73z" />
    <glyph glyph-name="g" unicode="g" 
d="M245 554h270h263q19 0 28.5 -13t-0.5 -30q-22 -26 -130 -137t-136 -147q-11 -14 -28.5 -14t-28.5 14q-24 30 -132 141.5t-133 143.5q-9 15 -1 28.5t28 13.5z" />
    <glyph glyph-name="i" unicode="i" 
d="M342 117v270v263q0 19 13 28t30 0q26 -23 137 -131t147 -136q14 -11 14 -28t-14 -28q-30 -25 -141.5 -132.5t-143.5 -133.5q-15 -8 -28.5 0t-13.5 28z" />
    <glyph glyph-name="h" unicode="h" 
d="M779 213h-270h-263q-19 1 -28 13.5t0 29.5q23 26 131 137.5t136 146.5q11 15 28 14.5t28 -14.5q25 -29 132.5 -141t133.5 -144q8 -14 0 -27.5t-28 -14.5z" />
    <glyph glyph-name="j" unicode="j" 
d="M683 651v-270v-263q-1 -19 -13.5 -28.5t-29.5 0.5q-26 22 -137.5 130t-146.5 137q-15 10 -14.5 27.5t14.5 28.5q29 24 141 132t144 133q14 9 27.5 1t14.5 -28z" />
    <glyph glyph-name="ellipsis" unicode="&#x2026;" 
d="M205 486q-44 -1 -72.5 -30t-30.5 -72q2 -44 30.5 -73t72.5 -29t72.5 29t28.5 72.5t-28.5 72.5t-72.5 30zM820 486q-44 -1 -73 -30t-30 -72q1 -44 30 -73t72.5 -29t72.5 29t29 72.5t-29 72.5t-72 30zM512 486q-43 -1 -72 -30t-30 -72q1 -44 30 -73t72.5 -29t72.5 29
t29 72.5t-29 72.5t-73 30z" />
    <glyph glyph-name="nine" unicode="9" 
d="M968 452q-5 189 -133.5 314t-322.5 130q-193 -5 -321.5 -130t-133.5 -314q3 -161 100.5 -278t251.5 -154v0q1 -1 15 -13.5t23 -28.5l21 -37q15 -29 29 -57q2 -4 5.5 -8t10 -4t10 4t4.5 8q14 28 30 57l20 37q10 16 23.5 28.5t15.5 13.5h-1q155 37 252.5 154t100.5 278z
M673 166l-44 56q-53 -30 -119 -30q-111 0 -184 76t-73 182q0 70 34 129t93.5 93.5t128.5 34.5q104 0 179 -75t75 -184q0 -100 -65 -172l85 -110h-110zM509 616q-69 0 -115.5 -47.5t-46.5 -120.5q0 -81 58 -129q46 -37 104 -37q34 0 63 14l-88 113h112l44 -57q29 44 29 97
q0 70 -47 118.5t-113 48.5z" />
    <glyph glyph-name="equal" unicode="=" 
d="M0 750v-147h1025v147h-1025zM0 310h1025v147h-1025v-147zM0 18h1025v146h-1025v-146z" />
    <glyph glyph-name="asciicircum" unicode="~" 
d="M427 42q-1 -36 -25 -60t-60 -25h-1q-36 1 -60 25t-25 60v683q1 37 25 61t60 25h1q36 -1 60 -25t25 -61v-683zM402 103q25 -27 25 -60.5t-25 -60.5l-1 -1q-26 -24 -60 -24t-60 25l-241 241q-26 27 -26 60.5t25 60.5l1 1q26 24 60 24t60 -25zM985 544q25 -26 25.5 -60
t-24.5 -60l-1 -1q-26 -25 -60 -25t-61 25l-241 242q-25 26 -25 60t24 60l2 1q26 25 59.5 24.5t60.5 -25.5zM769 42q-1 -36 -25 -60t-60 -25h-2q-36 1 -59.5 25t-24.5 60v683q1 37 24.5 61t59.5 25h2q36 -1 60 -25t25 -61v-683z" />
    <glyph glyph-name="seven" unicode="7" 
d="M944 625l51 51q22 23 22 52t-22 52l-87 87q-22 21 -51.5 21t-52.5 -22l-51 -51zM676 738l-595 -595l-73 -264l263 73l595 595z" />
    <glyph glyph-name="agrave" unicode="&#xc0;" 
d="M614 368q1 -35 24 -58.5t58.5 -23.5t59 23.5t23.5 59t-23.5 59t-59 23.5t-58.5 -23.5t-24 -59.5zM934 15q-33 35 -76.5 55t-94.5 20q-56 0 -103 -24l-1 1q-65 -31 -142 -32q-141 4 -234.5 97.5t-97.5 234.5q4 142 97.5 235.5t234.5 97.5q142 -4 235.5 -97.5t97.5 -235.5
q-1 -70 -28 -131l1 -1q-4 -8 -4 -19q0 -20 13.5 -33.5t33.5 -13.5q15 0 26 7.5t17 19.5l1 4q34 77 35 167q-5 182 -125.5 302.5t-302.5 124.5q-181 -4 -301.5 -124.5t-125.5 -302.5q4 -176 118 -295t288 -131v1q3 -3 65 0.5t143 39.5q27 13 59.5 13t59.5 -12.5t47 -34.5v0
q14 -16 36 -17q20 0 33.5 13.5t14.5 33.5q-2 24 -20 37zM517 630q-36 0 -59 -23.5t-23 -59t23 -59t58.5 -23.5t59 23.5t23.5 59t-23.5 59t-58.5 23.5zM255 368q1 -35 24.5 -58.5t58.5 -23.5t58.5 23.5t23.5 59t-23.5 59t-58.5 23.5t-58.5 -23.5t-24.5 -59.5zM565 368
q-1 20 -14.5 33.5t-33.5 13.5t-33.5 -13.5t-13.5 -33.5t13.5 -33.5t33.5 -13.5t33.5 13.5t14.5 33.5zM434 190q1 -36 24 -59.5t58.5 -23.5t59 23.5t23.5 59t-23.5 59t-59 23.5t-58.5 -23.5t-24 -58.5z" />
    <glyph glyph-name="aacute" unicode="&#xc1;" 
d="M773 193q107 113 106.5 259.5t-107.5 259.5q-113 107 -260 107t-260 -107q-108 -114 -108 -260.5t108 -260.5l228 -227q14 -14 32 -15t31 11l5 5l2 4l222 222zM317 646q85 81 195 81t195 -81q81 -84 81 -194t-81 -195l-195 -196l-195 195q-81 85 -81 195.5t81 194.5z
M512 291q68 2 113.5 47.5t47.5 113.5q-2 68 -47.5 113.5t-113.5 47.5q-68 -2 -113.5 -47.5t-47.5 -113.5q2 -68 47.5 -113.5t113.5 -47.5zM512 521q29 -1 48.5 -20.5t19.5 -48.5t-19.5 -48.5t-48.5 -19.5t-48.5 19.5t-19.5 48.5t19.5 48.5t48.5 20.5z" />
    <glyph glyph-name="atilde" unicode="&#xc3;" 
d="M768 510q-1 -22 -15 -36.5t-36 -15.5v0q-22 1 -36.5 15.5t-14.5 36.5v0q0 21 14.5 35.5t36.5 15.5v0q22 -1 36 -15.5t15 -35.5v0zM768 305q-1 -22 -15 -36.5t-36 -14.5v0q-22 0 -36.5 14.5t-14.5 36.5v0q0 22 14.5 36t36.5 15v0q22 -1 36 -15t15 -36v0zM819 356
q-22 1 -36 15t-15 36v0q1 22 15 36.5t36 14.5v0q22 0 36.5 -14.5t14.5 -36.5v0q0 -22 -14.5 -36t-36.5 -15v0zM614 356q-21 1 -35.5 15t-15.5 36v0q1 22 15.5 36.5t35.5 14.5v0q22 0 36.5 -14.5t15.5 -36.5v0q-1 -22 -15.5 -36t-36.5 -15v0zM358 510q0 -22 -14.5 -36.5
t-36.5 -14.5t-36 14.5t-14 36t14 36t36 14.5t36.5 -14.5t14.5 -35.5zM358 305q0 -22 -14.5 -36.5t-36.5 -14.5t-36 14.5t-14 36.5t14 36t36 14t36.5 -14t14.5 -36zM256 510h102v-205h-102v205zM410 356q-22 1 -36.5 15t-14.5 36t14.5 36.5t36 14.5t36 -14.5t14.5 -36.5
t-14.5 -36t-35.5 -15zM205 356q-22 1 -36.5 15t-14.5 36t14.5 36.5t36.5 14.5t36 -14.5t14 -36.5t-14 -36t-36 -15zM205 458h205v-102h-205v102zM691 742h-2v1h-356v-1q-142 -3 -235.5 -97t-97.5 -235q4 -142 97.5 -236t235.5 -97h5h348h5q142 3 235.5 97t97.5 236
q-4 141 -97.5 235t-235.5 97zM691 179h-2l-6 1h-350v-1q-98 3 -163 68t-68 163q3 97 68 162.5t163 67.5v0h356v0h2q98 -2 163 -67.5t68 -162.5q-3 -98 -68 -163t-163 -68z" />
    <glyph glyph-name="adieresis" unicode="&#xc4;" 
d="M457 652q12 5 19 11t4 21q-4 19 -12 23t-22 0q-1 1 -23 -5.5t-57 -35.5q-45 -42 -58 -68.5t-12 -27.5q-2 -5 -0.5 -14.5t5.5 -13.5q18 -13 31.5 -11t25.5 20l9 17t38 47q19 19 35 28t17 9zM403 -74q42 -25 99 -26q70 2 116.5 37.5t48.5 88.5l-1 5zM513 868
q-152 -4 -252.5 -95.5t-104.5 -230.5q1 -73 33.5 -140t89.5 -118q6 -10 17 -16.5t25 -6.5q20 1 33.5 13t14.5 30q0 13 -6.5 23t-17.5 16v0q-48 38 -76 91t-28 111q3 101 79 168.5t191 70.5q115 -3 191 -70.5t79 -168.5q-1 -72 -42 -136t-109 -100l-7 -4v0l-226 -94h1l-8 -4
q-15 -5 -24.5 -15.5t-10.5 -26.5q1 -18 15 -30.5t34 -12.5q8 0 18 3l9 3l184 77q28 9 54 23l25 14q79 50 126 130t48 170q-4 139 -104 230.5t-251 95.5zM659 172q-12 -1 -22 -5q-4 -1 -8 -3l-243 -99v-1q-14 -5 -22 -15.5t-9 -24.5q1 -19 15 -31.5t35 -13.5q12 1 22 6
l240 98l5 3q16 4 26 15t10 26q0 19 -14 31.5t-35 13.5z" />
    <glyph glyph-name="aagrave" unicode="&#xe0;" 
d="M596 294q33 37 51 84t18 100q-3 119 -82.5 198.5t-198.5 82.5q-120 -3 -199.5 -82.5t-82.5 -198.5q1 -53 19 -100t51 -84q-78 -52 -124 -133.5t-47 -181.5l-1 -3q1 -22 15 -36.5t36 -14.5h666q21 0 35.5 14.5t15.5 36.5v-7v7q-1 101 -47 183.5t-125 134.5zM108 27
q14 72 58.5 126.5t110.5 82.5v1q13 6 21.5 18t8.5 28t-7.5 29t-21.5 19q-34 25 -54.5 63t-20.5 84q2 77 53 128t128 53q77 -2 128.5 -53t53.5 -128q-1 -46 -21 -84t-55 -63q-14 -7 -21.5 -19.5t-7.5 -28.5t8.5 -28t21.5 -18v-1q66 -27 111 -82t59 -127h-553zM1024 27
q-1 101 -47 183.5t-125 135.5q33 37 51 83.5t18 99.5q-3 119 -82 198.5t-199 82.5v0h-1q-21 0 -35 -14t-14 -35.5t14 -35.5t35 -15l1 1v-1q77 -2 128.5 -53t53.5 -128q-1 -46 -21.5 -84t-54.5 -63q-14 -6 -21.5 -19t-7.5 -28.5t8.5 -28t21.5 -18.5v0q66 -28 111 -83t58 -127
h-46q-21 0 -35.5 -14.5t-14.5 -36.5t14.5 -36.5t35.5 -14.5h102q22 0 36.5 14.5t15.5 36.5v-7v7z" />
    <glyph glyph-name="aaacute" unicode="&#xe1;" 
d="M970 317q20 0 35.5 -15.5t15.5 -36t-15 -36.5l-289 -289q-16 -15 -36.5 -15t-36.5 15l-145 145q-15 15 -15 35.5t15.5 36t36 15.5t36.5 -15l108 -109l254 254q16 15 36 15zM774 319q-13 10 -27 19q34 40 53 90t19 106q-3 130 -90 217t-217 90q-131 -3 -217.5 -90
t-89.5 -217q0 -56 19 -106t53 -90q-91 -59 -145 -153.5t-55 -210.5l1 -15v15q0 -21 14.5 -35.5t36.5 -15.5h336q22 1 36.5 15.5t14.5 36t-14.5 36t-36.5 15.5h-282q14 85 65.5 151t128.5 101q16 6 25.5 19t10.5 31q-1 15 -8 27t-19 19q-36 28 -57 69.5t-22 90.5q2 87 60 145
t145 60q87 -2 145 -60t60 -145q-1 -49 -21.5 -90t-56.5 -69q-13 -7 -20 -19.5t-7 -28.5q0 -18 10 -31t26 -19q42 -18 77 -46v0q13 -10 30 -11q21 1 35.5 15.5t15.5 35.5q0 16 -8.5 26.5t-23.5 21.5z" />
    <glyph glyph-name="aatilde" unicode="&#xe3;" 
d="M922 179h-103v103q0 21 -14.5 35.5t-36.5 14.5t-36.5 -14.5t-14.5 -35.5v-103h-103q-21 0 -35.5 -14.5t-14.5 -36.5t14.5 -36.5t35.5 -14.5h103v-103q0 -21 14.5 -35.5t36.5 -14.5t36.5 14.5t14.5 35.5v103h103q21 0 35.5 14.5t14.5 36.5t-14.5 36.5t-35.5 14.5zM795 421
q23 52 24 113q-3 130 -90 217t-217 90q-131 -3 -217.5 -90t-89.5 -217q0 -56 19 -106t53 -89q-91 -60 -145 -154.5t-55 -210.5l1 -15v15q0 -21 14.5 -35.5t36.5 -15.5h485q22 1 36.5 15.5t14.5 36t-14.5 36t-36.5 15.5h-431q14 85 65.5 151t128.5 101q16 6 25.5 19t10.5 31
q-1 15 -8 27t-19 19q-36 28 -57 69.5t-22 90.5q2 87 60 145t145 60q87 -2 145 -60t60 -145q-1 -39 -15 -73l-3 -9q-2 -7 -2 -14q1 -21 15 -35.5t36 -15.5q13 0 24 6.5t18 16.5z" />
    <glyph glyph-name="aadieresis" unicode="&#xe4;" 
d="M999 -33l-97 97q29 46 30 104q-2 87 -60 145t-145 60q-87 -2 -144.5 -59.5t-60.5 -144.5q3 -87 60.5 -145t145.5 -60q58 1 104 29l97 -96q15 -15 35 -15t34.5 15t14.5 35t-14 35zM728 67q-44 1 -73 30t-29 72.5t29 72.5t72.5 29t72 -29t29 -72.5t-28.5 -72.5t-72 -30z
M819 534q-3 130 -89.5 217t-217.5 90q-131 -3 -217.5 -90t-89.5 -217q0 -56 19 -106t53 -90q-91 -59 -145 -153.5t-55 -210.5l1 -15v15q0 -21 14.5 -35.5t36.5 -15.5h358q1 0 0 0t0 0q22 1 38 15t16 36t-14.5 36.5t-36.5 15.5h-307q14 85 65.5 151t128.5 101q16 6 25.5 19
t10.5 31q-1 15 -8 27t-19 19q-36 28 -57 69.5t-22 90.5q2 87 60 145t145 60q87 -2 145 -60t60 -145q0 -22 -5 -43l-1 -9q0 -21 14.5 -34.5t36.5 -16.5q16 -2 31 12.5t21 38.5v1q5 25 5 51z" />
    <glyph glyph-name="aring" unicode="&#xc2;" 
d="M878 802h-1v0q-14 14 -35 15h-103v-103h51v-665h-563v665h204v103h-257q-20 -1 -34 -15h-1q-14 -14 -15 -35v-771q1 -20 15 -34l1 -1q14 -14 34 -15h668q22 1 36 15.5t14 34.5v771q0 21 -14 35zM687 356v102v359h-204v-461l102 68z" />
    <glyph glyph-name="acircumflex" unicode="&#xe2;" 
d="M257 705q-149 -97 -175 -213t-14 -177q218 228 436 271t235 32q-30 0 -305.5 -147t-431.5 -441q-6 -26 27.5 -42.5t51.5 7.5q41 84 80.5 137t42.5 54q83 -34 199.5 -46t217.5 52q114 100 171.5 256t227.5 263q16 35 -254.5 70t-508.5 -76z" />
    <glyph glyph-name="aring1" unicode="&#xe5;" 
d="M512 896q-218 -5 -362.5 -149.5t-149.5 -362.5q5 -218 149.5 -362t362.5 -150q218 6 362.5 150t149.5 362q-5 218 -149.5 362.5t-362.5 149.5zM576 -36q23 27 52.5 67t55.5 71q21 25 35 38.5t43 57.5q1 4 4.5 34.5t-4.5 52.5q2 1 -10.5 29t-56.5 62q-49 35 -79 47t-65 12
q-45 -1 -90 -22.5t-51 -39.5q-1 -22 13 -70.5t35 -67.5q23 -17 36.5 -47.5t22.5 -53.5q17 -44 -12.5 -79.5t-64.5 -89.5q-154 29 -252.5 143.5t-102.5 275.5q1 64 18.5 121.5t49.5 107.5q-1 -8 0.5 -16t1.5 -20q0 -22 17 -53t24 -51q1 -4 41 -41t100 -48q-1 3 -11 44.5
t-8 88.5q5 20 38 21.5t55.5 23t67 39.5t60.5 22q21 -4 98 5t-41 81q-61 35 -90 58t-61 37q33 6 67 7q134 -2 238 -72.5t154 -187.5q-17 10 -41.5 16.5t-57.5 8.5q-9 10 -33 10.5t48 -139.5q16 -28 50 -68t61 -76q-28 -134 -123.5 -225.5t-231.5 -113.5z" />
    <glyph glyph-name="ccedilla" unicode="&#xc7;" 
d="M768 358q-98 -2 -163 -67t-67 -163q2 -98 67 -163t163 -67q98 2 163 67t67 163q-2 98 -67 163t-163 67zM769 -51q-22 0 -36.5 14.5t-14.5 36.5t14.5 36.5t36.5 14.5t36.5 -14.5t14.5 -36.5t-14.5 -36.5t-36.5 -14.5zM810 145v-2q0 -17 -11.5 -28.5t-29 -11.5t-29 11.5
t-12.5 28.5l-10 113q0 22 14.5 36.5t36.5 14.5t36.5 -14.5t14.5 -36.5zM472 26v0h-289q14 85 65.5 151t128.5 101q16 6 25.5 19t10.5 31q-1 15 -8 27t-19 19q-36 28 -57 69.5t-22 90.5q2 87 60 145t145 60q87 -2 145 -60t60 -145q-1 -17 -5 -36l-4 -21q-2 -8 -2 -16
q1 -22 15.5 -36.5t36 -14.5t35 13.5t16.5 37.5v0q10 35 10 73q-3 130 -89.5 217t-217.5 90q-131 -3 -217.5 -90t-89.5 -217q0 -56 19 -106t53 -89q-91 -60 -145 -154t-55 -211q0 -3 0 -2v2q0 -21 15 -35.5t37 -15.5h343q22 1 36.5 15.5t14.5 36t-14.5 36t-36.5 15.5z" />
    <glyph glyph-name="egrave" unicode="&#xf5;" 
d="M1024 563q-1 13 -3 26v1q-12 98 -82 162.5t-171 66.5q-109 -3 -181 -75t-75 -181q-3 109 -75 181t-181 75q-101 -2 -171 -66.5t-82 -162.5v-1q-2 -13 -3 -26l1 -7l-1 -13q0 -29 7 -57l1 -3q72 -207 275 -366.5t229 -167.5q26 8 229 167.5t275 366.5l1 3q7 28 7 57l-1 13z
M853 490q0 -19 -4 -38l-1 -2q-48 -138 -183.5 -244t-152.5 -112v409q2 73 50 121t121 50q67 -1 113.5 -44t54.5 -109h1q1 -9 1 -18v-5v-8z" />
    <glyph glyph-name="ecircumflex" unicode="&#xf8;" 
d="M1024 273q0 7 -1 13v0q-7 50 -41.5 82t-85.5 33q-54 -1 -90.5 -37.5t-37.5 -90.5q-1 54 -37.5 90.5t-90.5 37.5q-51 -1 -86 -33t-41 -82v0q-1 -6 -1 -13v-4v-6q16 -111 128 -201.5t128 -95.5q16 5 128 95.5t128 201.5v6v4zM428 295q11 84 69.5 137t142.5 54
q36 0 68.5 -11t59.5 -31q29 21 64 32q21 48 21 96v11v6q0 11 -2 21v1q-10 82 -68.5 135.5t-142.5 55.5q-91 -2 -151 -62.5t-62 -150.5q-3 90 -63 150.5t-151 62.5q-84 -2 -142 -55.5t-69 -135.5v-1q-1 -10 -2 -21l1 -6l-1 -11q27 -186 213.5 -336t213.5 -159l14 9
q15 9 39 26q-24 35 -38.5 73t-14.5 78v10q0 10 1 22v0z" />
    <glyph glyph-name="edieresis" unicode="&#xef;" 
d="M1022 498q-5 13 -15 21.5t-24 10.5l-89 13l-84 -85l62 -9l-161 -154q-18 -18 -14 -43l38 -219l-201 104q-11 5 -22.5 5t-21.5 -5l-201 -104l38 219q4 25 -14 43l-161 154l223 32q25 5 37 26l100 201l56 -111l71 71l-84 169q-15 24 -43 24t-43 -24l-132 -264l-296 -43
q-14 -2 -24 -10.5t-14.5 -22t-1 -26.5t13.5 -23l213 -205l-50 -289q-2 -14 3 -26.5t16 -20.5t24.5 -9t25.5 5l265 137l265 -137q10 -5 22 -5q15 0 27 8.5t17 21t3 26.5l-50 289l213 205q10 10 13.5 23t-0.5 27zM381 220l171 71l373 373q11 11 11 25t-11 25l-50 50
q-10 10 -24.5 10t-24.5 -10l-374 -374z" />
    <glyph glyph-name="k" unicode="k" 
d="M908 71h-794v0h-3q-24 0 -40 -16.5t-16 -40.5t16 -40t40 -17l3 1v-1h794q24 1 40 17t16 40t-16 40.5t-40 16.5zM268 460q1 1 1 3l1 -1l183 183v-429v0v-3q0 -24 16 -40t40.5 -16t40.5 16t16 40v3v0v429l184 -183v1l1 -3q18 -16 40.5 -16t40 17t17.5 39.5t-17 40.5l-2 1v1
l-280 279q-17 17 -40 17q-20 0 -37 -13l-284 -283l1 -1l-2 -1q-17 -18 -17 -40.5t17 -39.5t40 -17t40 16z" />
    <glyph glyph-name="l" unicode="l" 
d="M908 242q-24 -1 -40.5 -17t-16.5 -40v-142h-683v682h142q25 1 41 17t16 40t-16 40t-41 17h-196v0h-3q-18 0 -31.5 -9.5t-20.5 -25.5q-5 -10 -5 -22v-794h1l-1 -2q0 -12 5 -22q7 -16 20.5 -25.5t31.5 -9.5v0h3v0h794q9 0 17 4h5l5 4q14 8 21.5 20.5t8.5 28.5l-1 2h1v197
q-1 24 -17 40t-40 17zM965 472v310q-1 24 -17 40t-40 17h-311v0h-2q-25 0 -41 -16.5t-16 -40.5t16.5 -40t40.5 -17l2 1v-1h173l-73 -73v0l-401 -401h1l-3 -1q-16 -18 -16 -40.5t17 -40t39.5 -17.5t40.5 17l1 2h1l474 474v-173v0v-3q0 -24 16.5 -40t40.5 -16t40 16t17 40
l-1 3h1z" />
    <glyph glyph-name="mm" unicode="m" 
d="M182 53q-20 20 -20 47t20 47t47 20t48 -19v0q45 -46 105.5 -72t129.5 -27q143 4 237.5 98.5t97.5 236.5q-3 142 -97.5 236.5t-236.5 98.5q-74 -1 -136 -30t-108 -79l99 -99h-1q11 -10 11 -25t-9.5 -25t-24.5 -10h-266q-15 0 -25 10t-10 26v265q0 15 9.5 24.5t24.5 9.5
t24 -9v1l73 -72q64 68 150.5 107t187.5 40q200 -5 332 -137.5t137 -331.5q-5 -199 -137 -331.5t-332 -137.5q-96 1 -179 36.5t-147 97.5z" />
    <glyph glyph-name="nn" unicode="n" 
d="M842 53q20 20 20 47t-20 47t-47 20t-48 -19v0q-45 -46 -105.5 -72t-129.5 -27q-143 4 -237.5 98.5t-97.5 236.5q3 142 97.5 236.5t236.5 98.5q74 -1 136 -30t108 -79l-99 -99h1q-11 -10 -11 -25t9.5 -25t24.5 -10h266q15 0 25 10t10 26v265q0 15 -9.5 24.5t-24.5 9.5
t-24 -9v1l-73 -72q-64 68 -150.5 107t-187.5 40q-200 -5 -332 -137.5t-137 -331.5q5 -199 137 -331.5t332 -137.5q96 1 179 36.5t147 97.5z" />
    <glyph glyph-name="bar" unicode="|" 
d="M908 214q-24 -1 -40.5 -17t-16.5 -40v-85h-683v85q0 24 -16.5 40t-40.5 16t-40 -16t-17 -40v-142q1 -25 17 -41t40 -16h3v0h794q24 0 40 16t17 41v142q-1 24 -17 40t-40 17zM190 453h-1l280 -280q18 -17 41 -17t40 17l280 280v0l2 2q16 17 16 40t-17 40t-39.5 17
t-40.5 -17l-1 -2v0l-184 -183v430v0v2q0 24 -16 40t-40.5 16t-40.5 -16t-16 -40v-2v0v-429l-183 182h-1l-1 2q-17 17 -40 17t-40 -17t-17 -40t17 -40z" />
    <glyph glyph-name="aae" unicode="&#xc9;" 
d="M268 460q1 1 1 3l1 -1l183 183v-429v0v-3q0 -24 16 -40t40.5 -16t40.5 16t16 40v3v0v429l184 -183v1l1 -3q18 -16 40.5 -16t40 17t17.5 39.5t-17 40.5l-2 1v1l-280 279q-17 17 -40 17q-12 0 -22.5 -4.5t-17.5 -11.5l-281 -280l1 -1l-2 -1q-17 -18 -17 -40.5t17 -39.5
t40 -17t40 16zM908 214q-24 -1 -40 -17t-17 -40v-85h-683v85q0 24 -16 40t-40.5 16t-40.5 -16t-17 -40v-142q1 -25 17 -41t40 -16h3v0h794q24 0 40 16t17 41v142q-1 24 -17 40t-40 17z" />
    <glyph glyph-name="cccedilla" unicode="&#xca;" 
d="M512 702q-166 -2 -299.5 -88t-212.5 -230q79 -144 212.5 -230t299.5 -88q166 2 299.5 88t212.5 230q-79 144 -212.5 230t-299.5 88zM512 155q-96 3 -160 67.5t-66 161.5q2 97 66 161.5t160 67.5q96 -3 160 -67.5t66 -161.5q-2 -97 -66 -161.5t-160 -67.5zM512 522
q-58 -2 -97 -40.5t-40 -97.5q1 -58 40 -97t97 -41q58 2 97 41t40 97q-1 59 -40 97.5t-97 40.5z" />
    <glyph glyph-name="eecircumflex" unicode="&#xd4;" 
d="M973 80h-51v52q-1 21 -15.5 35.5t-36 14.5t-36 -14.5t-15.5 -35.5v-52h-51q-22 0 -36.5 -14.5t-14.5 -36.5t14.5 -36.5t36.5 -14.5h51v-51q1 -22 15.5 -36.5t36 -14.5t36 14.5t15.5 36.5v51h51q22 0 36 14.5t14 36.5t-14 36.5t-36 14.5zM102 640q1 -22 15.5 -36.5
t36 -14.5t36 14.5t15.5 36.5v51h51q22 1 36.5 15.5t14.5 36t-14.5 36t-36.5 15.5h-51v51q-1 22 -15.5 36t-36 14t-36 -14t-15.5 -36v-51h-51q-22 -1 -36 -15.5t-14 -36t14 -36t36 -15.5h51v-51zM410 691h409v-409q1 -22 15.5 -36.5t36 -14.5t36 14.5t15.5 36.5v460
q-1 22 -15.5 36.5t-36.5 15.5h-460q-22 -1 -36.5 -15.5t-14.5 -36t14.5 -36t36.5 -15.5zM614 77h-409v409q-1 22 -15.5 36.5t-36 14.5t-36 -14.5t-15.5 -36.5v-460q1 -22 15.5 -36.5t36.5 -15.5h460q22 1 36.5 15.5t14.5 36t-14.5 36t-36.5 15.5z" />
    <glyph glyph-name="eedieresis" unicode="&#xcb;" 
d="M358 333q23 0 37 15l117 117v-286q1 -22 15 -36t36 -14t36.5 14t14.5 36v286l118 -117v0q14 -15 36 -15t36.5 14.5t14.5 36.5q-1 25 -19 40l-197 197q-14 18 -40 19q-22 -1 -37 -16l-203 -203q-15 -15 -15 -37t14.5 -36.5t35.5 -14.5zM922 845h-717q-22 -1 -36.5 -15.5
t-14.5 -35.5v-103h-52q-21 0 -35.5 -14.5t-14.5 -36.5t14.5 -36.5t35.5 -14.5h52v-154h-52q-21 0 -35.5 -14.5t-14.5 -36.5t14.5 -36.5t35.5 -14.5h52v-154h-52q-21 0 -35.5 -14.5t-14.5 -36.5t14.5 -36.5t35.5 -14.5h52v-103q0 -21 14.5 -35.5t36.5 -15.5h717
q21 1 35.5 15.5t15.5 35.5v820q-1 21 -15.5 35.5t-35.5 15.5zM870 26h-614v716h614v-716z" />
    <glyph glyph-name="iigrave" unicode="&#xcc;" 
d="M666 538q21 -1 35.5 -15.5t15.5 -35.5h51v102q-1 22 -15.5 36.5t-35.5 14.5h-410q-22 0 -36 -14.5t-15 -36.5v-102h51q1 21 15.5 35.5t35.5 15.5h103v-359q0 -21 14.5 -35.5t36.5 -14.5t36.5 14.5t14.5 35.5v359h103zM461 26v0h-307v716h716v-512q1 -22 15.5 -36.5
t36 -14.5t36 14.5t15.5 36.5v563q-1 22 -15.5 36.5t-35.5 14.5h-820q-21 0 -35.5 -14.5t-15.5 -35.5v0v-820q1 -21 15.5 -35.5t35.5 -14.5v-1h359q22 1 36 15.5t14 36t-14 36t-36 15.5zM998 -77h-25v205h-103v-205h-51v256h-102v-256h-51v154h-103v-154h-25q-11 0 -18.5 -7
t-7.5 -18t7.5 -18.5t18.5 -7.5h460q11 0 18.5 7.5t7.5 18.5t-7.5 18t-18.5 7z" />
    <glyph glyph-name="iiacute" unicode="&#xcd;" 
d="M665 614q1 -32 23 -54t54.5 -22t54 22t21.5 54.5t-21.5 54t-54 21.5t-54.5 -21.5t-23 -54.5zM461 26h-308v244l144 143l178 -181q12 -11 27 -14t29 3q12 9 65 61l60 58l94 -95q15 -14 37 -14t36.5 14.5t15.5 36.5q-1 25 -19 39l-128 128q-15 15 -35.5 15t-36.5 -15
l-107 -107l-181 180q-16 15 -36 15t-36 -15l-107 -107v327h717v-511q1 -22 15.5 -36.5t36 -14.5t36 14.5t15.5 36.5l-1 3v560q-1 22 -15 36t-36 15h-819q-21 -1 -35.5 -15t-15.5 -36v0v-820q1 -21 15 -35t35 -15v-1h360q21 1 35.5 15.5t14.5 36t-14.5 36t-35.5 15.5z
M998 -77h-25v205h-103v-205h-51v256h-102v-256h-51v154h-103v-154h-26q-10 0 -17.5 -7t-7.5 -18t7.5 -18t17.5 -8h461q11 1 18.5 8t7.5 18t-7.5 18t-18.5 7z" />
    <glyph glyph-name="iicircumflex" unicode="&#xce;" 
d="M967 -71zM1015 -71zM48 896zM967 -71zM154 384q-22 -1 -36.5 -15t-14.5 -36t14.5 -36.5t36.5 -14.5h153v-154q1 -22 15.5 -36.5t36 -14.5t36 14.5t15.5 36.5v154h204v-154q1 -22 15.5 -36.5t36 -14.5t36 14.5t15.5 36.5v154h153q22 0 36.5 14.5t14.5 36.5t-14.5 36
t-36.5 15h-153v205h153q22 0 36.5 14.5t14.5 36.5t-14.5 36.5t-36.5 14.5h-153v154q-1 22 -15.5 36t-36 14t-36 -14t-15.5 -36v-154h-204v154q-1 22 -15.5 36t-36 14t-36 -14t-15.5 -36v-154h-153q-22 0 -36.5 -14.5t-14.5 -36.5t14.5 -36.5t36.5 -14.5h153v-205h-153z
M410 589h204v-205h-204v205zM973 180q-22 -1 -36.5 -15t-14.5 -36v-103h-820v103q0 22 -14.5 36t-36.5 14t-36 -14t-15 -36v-154q1 -22 15 -36t36 -15h922q22 1 36 15t15 36v154q-1 22 -15 36t-36 15z" />
    <glyph glyph-name="eeth" unicode="&#xd0;" 
d="M922 845h-820q-21 -1 -35.5 -15.5t-15.5 -35.5v-820q1 -21 15.5 -35.5t35.5 -15.5h820q21 1 35.5 15.5t15.5 35.5v820q-1 21 -15.5 35.5t-35.5 15.5zM371 640l102 102h163l-103 -102h-162zM154 742h174l-102 -102h-72v102zM870 26h-716v512h716v-512zM870 640h-192
l102 102h90v-102zM420 130q20 13 100 69l99 68q8 5 8 14t-8 15q-22 14 -102 70l-97 67q-9 5 -16 0t-7 -15v-273q0 -11 7.5 -15t15.5 0z" />
    <glyph glyph-name="oograve" unicode="&#xd2;" 
d="M768 77q-1 22 -15 36t-36 14t-36.5 -14t-14.5 -36t14.5 -36.5t36.5 -14.5t36 14.5t15 36.5zM922 845h-820q-21 -1 -35.5 -15.5t-15.5 -35.5v-820q1 -21 15.5 -35.5t35.5 -15.5h820q21 1 35.5 15.5t15.5 35.5v820q-1 21 -15.5 35.5t-35.5 15.5zM870 26h-153h-563v102h716
v-102zM870 230h-716v512h716v-512zM468 307q9 -15 24.5 -21.5t32.5 -2.5l1 1q19 5 30 23l180 311q10 19 4.5 38.5t-24 30.5t-38.5 5.5t-31 -23.5l-135 -234l-135 234q-11 18 -31 23.5t-38.5 -5.5t-24 -30.5t4.5 -38.5z" />
    <glyph glyph-name="ooacute" unicode="&#xd3;" 
d="M1008 463q-16 16 -37.5 16t-38.5 -16v1l-346 -346q-17 -15 -37.5 -14.5t-37.5 15.5l-229 230q-17 16 -38.5 16t-37.5 -16.5t-16 -38t15 -38.5l269 -268q33 -31 76 -31t76 32l382 382v0q16 17 16 38.5t-16 37.5zM634 358l1 -1q-12 -12 -11.5 -28t12 -28t27.5 -12t29 11v0
l163 164v0q12 12 12 28t-12 28.5t-28.5 12.5t-28.5 -12v0zM539 453v0q-11 -12 -11 -28t12 -28t28 -12t28 11v0l125 125v0q12 12 12 28.5t-12 28.5t-28 12t-29 -12v0zM444 492q12 -11 28 -11.5t28 11.5l1 -1l87 87h-1q12 13 12 29t-12 28t-28 12t-29 -11l-87 -87v0
q-11 -13 -11 -29t12 -28zM239 448v0q20 -1 36 -16l236 -236q17 -16 38.5 -16t37.5 16.5t16 38t-15 37.5v0v0l-254 254l-9 7l-15 10q-5 3 -11 5l-20 6l-17 1v1h-154q-22 0 -42 -9l-4 -2l-18 -10l-16 -14l-9 -12q-19 -29 -19 -61v-10v0v-164q1 -23 16 -38t38 -15t38.5 15
t15.5 38v120v0q0 22 16 38q14 13 31 16h84z" />
    <glyph glyph-name="gglyph" unicode="&#xd5;" 
d="M476 188q-15 15 -35.5 15t-36.5 -15l-72 -72q-15 -16 -15 -36.5t15 -35.5t35.5 -15t36.5 15l72 72q15 16 15 36.5t-15 35.5zM585 80q-16 15 -36.5 15t-35.5 -15l-73 -73q-15 -15 -15 -35.5t15.5 -36t36 -15.5t36.5 15l72 72q15 16 15 36.5t-15 36.5zM948 372
q78 86 76 196t-82 194q-85 81 -194.5 82.5t-196.5 -75.5l-2 -1l-145 -145q-15 -16 -15 -36.5t15.5 -35.5t36 -15t35.5 15l140 139q55 52 126.5 52t126.5 -52q53 -55 53 -126.5t-53 -126.5l-212 -212q-15 -16 -15 -36.5t15.5 -36t36 -15.5t36.5 15l217 218zM259 406
q-16 15 -36.5 15t-35.5 -15l-73 -73q-15 -15 -15 -35.5t15.5 -36t36 -15.5t36.5 15l72 72q15 16 15 36.5t-15 36.5zM368 297q-16 15 -36.5 15t-36.5 -15l-72 -72q-15 -16 -15 -36.5t15.5 -36t36 -15.5t35.5 15l73 73q15 15 15 35.5t-15 36.5zM132 435l2 8q0 6 -1 13v2
q-2 8 -6 14l1 1q-25 40 -26 90q2 76 53 126.5t127 52.5q27 -1 58 -11.5t34 -11.5q15 -8 31 -6.5t29 14.5q15 15 15 35.5t-15 36.5q-5 4 -11 9.5t-12 7.5q-26 12 -59.5 20t-69.5 9q-120 -3 -199.5 -82.5t-82.5 -199.5q1 -74 36 -134v0l4 -7v0q3 -6 7 -11q16 -15 36.5 -15
t36.5 15q6 7 10 15q2 5 2 9z" />
    <glyph glyph-name="oodieresis" unicode="&#xd6;" 
d="M562 587h-389l182 182l72 -72q16 -15 36.5 -15t35.5 15.5t15.5 36t-14.5 36.5l-104 103l-4 5q-16 15 -36.5 15t-36.5 -15l-4 -5l-248 -248q-16 -17 -15 -38v-664q1 -22 15 -36t36 -15h459q22 1 36.5 15t14.5 36v613q0 21 -14.5 35.5t-36.5 15.5zM154 485h357v-511h-357
v511zM409 331q22 1 36.5 15.5t14.5 36t-14.5 36t-36 14.5t-36 -14.5t-14.5 -36t14.5 -36t35.5 -15.5zM256 433q-21 0 -35.5 -14.5t-14.5 -36t14.5 -36t36 -14.5t36 14.5t14.5 36t-14.5 36t-36.5 14.5zM409 280q-21 0 -35.5 -14.5t-14.5 -36t14.5 -36t36 -14.5t36 14.5
t14.5 36t-14.5 36t-36.5 14.5zM256 280q-21 0 -35.5 -14.5t-14.5 -36t14.5 -36t36 -14.5t36 14.5t14.5 36t-14.5 36t-36.5 14.5zM409 127q-21 0 -35.5 -14.5t-14.5 -36.5t14.5 -36t36 -14t36 14t14.5 36t-14.5 36.5t-36.5 14.5zM256 127q-21 0 -35.5 -14.5t-14.5 -36.5
t14.5 -36t36 -14t36 14t14.5 36t-14.5 36.5t-36.5 14.5zM920 433h-204q-22 0 -36.5 -14.5t-14.5 -36t14.5 -36t36.5 -15.5h153v-357h-153q-22 0 -36.5 -14.5t-14.5 -36.5t14.5 -36t36.5 -15h204q21 1 35.5 15t15.5 36v459q-1 22 -15.5 36.5t-35.5 14.5z" />
    <glyph glyph-name="ooslash" unicode="&#xd8;" 
d="M973 768q0 4 -1 8v0q-4 30 -25 49t-51 20q-33 -1 -54.5 -22.5t-22.5 -54.5q-1 33 -22.5 54.5t-54.5 22.5q-30 -1 -51 -20t-25 -49v-8v-6q9 -67 76.5 -121t76.5 -57q10 3 77 57t77 121v6zM691 384h-1h-127v30l130 130q15 16 15 36t-15.5 35.5t-36 15.5t-35.5 -15
l-109 -108l-109 108q-15 15 -35.5 15t-36 -15.5t-15.5 -35.5t15 -36l130 -130v-30h-130q-10 -1 -17 -8t-7 -17.5t7 -17.5t17 -8h130v-51h-79q-10 -1 -16.5 -8.5t-6.5 -17.5t6.5 -17.5t16.5 -8.5h79v-102q0 -22 14.5 -36.5t36.5 -14.5t36.5 14.5t14.5 36.5v102h77q11 1 18 8
t7 18t-7 18t-18 8h-77v51h128q11 0 18.5 7.5t7.5 18t-7.5 18t-18.5 7.5zM992 562q-1 2 -2 5v0v0q-6 14 -18.5 22t-27.5 8q-22 0 -36.5 -14.5t-15.5 -36.5q0 -11 4 -20v0q25 -67 26 -142q-5 -174 -120.5 -289.5t-289.5 -120.5q-174 5 -289.5 120.5t-120.5 289.5
q5 174 120.5 289.5t289.5 120.5q29 0 56 -4q5 -1 11 -1q22 0 36 14.5t14.5 35.5t-12.5 35t-33 16v1q-35 5 -72 5q-218 -5 -362.5 -149.5t-149.5 -362.5q5 -218 149.5 -362t362.5 -150q218 6 362.5 150t149.5 362q-1 94 -32 178z" />
    <glyph glyph-name="igrave" unicode="&#xec;" 
d="M818 504l-1 -1q-69 104 -158 190.5t-194 153.5l-9 3q-8 3 -15 3q-18 0 -30.5 -11t-16.5 -28v0q-9 -72 -42 -133.5t-85 -106.5v0q-60 -52 -94.5 -124.5t-35.5 -158.5q2 -121 67.5 -213.5t172.5 -134.5l13 -6l6 -2q5 -1 10 -1q20 0 33 13.5t14 33.5q-1 18 -11 30v0
q-21 29 -32.5 63.5t-11.5 72.5q1 64 30.5 115.5t80.5 82.5q22 -54 57 -100v0q22 -25 35 -56.5t13 -67.5q-1 -60 -33 -106v0q-13 -14 -12.5 -34t13.5 -33.5t33 -13.5q9 0 18 4v-1q111 40 180 134.5t71 219.5q0 60 -17.5 113.5t-48.5 99.5zM704 89q3 16 3 32q0 52 -17.5 97.5
t-48.5 82.5v0q-43 56 -62 125v0q-5 14 -17.5 22t-27.5 9q-9 0 -17 -3v0q-95 -37 -153 -118.5t-59 -188.5q0 -26 4 -50q-37 38 -57.5 87.5t-21.5 106.5q1 66 28 122t74 95v0q49 43 84.5 99t54.5 121q79 -57 146.5 -126t121.5 -149v0q24 -35 37.5 -75.5t14.5 -86.5
q-1 -60 -23.5 -111.5t-63.5 -90.5z" />
    <glyph glyph-name="iacute" unicode="&#xed;" 
d="M768 358q-98 -2 -163 -67t-67 -163q2 -98 67 -163t163 -67q98 2 163 67t67 163q-2 98 -67 163t-163 67zM922 147q-10 -66 -77 -120.5t-77 -57.5q-10 3 -77 57.5t-77 120.5v7l1 8q4 29 25 48.5t51 19.5q33 0 54.5 -21t22.5 -55q1 32 22.5 54t54.5 22q30 0 51 -19.5
t25 -49.5l1 -7v-7zM472 26h-289q14 85 65.5 151t128.5 101q16 6 25.5 19t10.5 31q-1 15 -8 27t-19 19q-36 28 -57 69.5t-22 90.5q2 87 60 145t145 60q87 -2 145 -60t60 -145q-1 -17 -5 -36l-4 -21q-2 -8 -2 -16q1 -22 15.5 -36.5t36 -14.5t35 13.5t16.5 37.5v0q10 35 10 73
q-3 130 -89.5 217t-217.5 90q-131 -3 -217.5 -90t-89.5 -217q0 -56 19 -106t53 -89q-91 -60 -145 -154t-55 -211q0 -21 15 -35.5t37 -15.5h343q22 1 36.5 15.5t14.5 36t-14.5 36t-36.5 15.5z" />
    <glyph glyph-name="icircumflex" unicode="&#xee;" 
d="M471 348q1 -24 17 -39l144 -143q16 -15 36.5 -15t36 15.5t15.5 36t-15 36.5l-131 130v236q-1 22 -15.5 36.5t-36 14.5t-36 -14.5t-15.5 -36.5v-257zM515 845q-128 -2 -231.5 -62.5t-165.5 -163.5l-10 31q-8 21 -26 30t-39 2.5t-30 -25t-3 -39.5l48 -147q7 -20 25.5 -29.5
t39.5 -3.5l147 48q20 8 29.5 26t2.5 39t-25 30.5t-39 2.5v0l-26 -8q49 76 127.5 120.5t175.5 45.5q153 -4 254.5 -105.5t105.5 -255.5q-4 -153 -105.5 -254.5t-254.5 -105.5q-129 3 -223 77.5t-126 193.5h-1q-5 17 -18 27.5t-31 10.5q-22 -1 -36.5 -15.5t-15.5 -36.5
q0 -12 5 -22q44 -149 164 -242t282 -96q196 5 327 136t136 327q-5 197 -136 328t-327 136z" />
    <glyph glyph-name="glyph" unicode="&#xeb;" 
d="M870 794q0 21 -14.5 35.5t-36.5 15.5h-614q-22 -1 -36.5 -15.5t-14.5 -35.5v-818v0v-2q0 -21 14.5 -35.5t36.5 -15.5h201q22 1 36.5 15.5t14.5 36t-14.5 36t-36.5 15.5h-150v716h512v-460h-208q-22 -1 -36.5 -15.5t-15.5 -36.5v-256q1 -21 15.5 -35.5t36.5 -14.5t36 15
l255 252q18 14 19 39v0v564zM611 96v83h83zM358 538h304q22 0 36.5 14.5t14.5 36.5t-14.5 36t-36.5 15h-304q-21 -1 -35.5 -15t-14.5 -36t14.5 -36.5t35.5 -14.5zM358 333h304q22 0 36.5 14.5t14.5 36.5t-14.5 36.5t-36.5 14.5h-304q-21 0 -35.5 -14.5t-14.5 -36.5
t14.5 -36.5t35.5 -14.5z" />
    <glyph glyph-name="eth" unicode="&#xf0;" 
d="M965 402q-1 0 -1 1l-434 434q-16 14 -36.5 14t-35.5 -15t-15 -35.5t15 -36.5l13 -13l-298 -515h-77q-24 -1 -38 -17l-2 -2q-12 -15 -11.5 -34t14.5 -34l218 -217q15 -15 35.5 -15t36.5 15q10 10 13.5 22.5t0.5 25.5v63l65 38l8 -14q37 -55 96.5 -68.5t115.5 20.5
q55 36 68.5 96t-20.5 116l-2 3l186 108l12 -12q16 -15 36.5 -15t35.5 15.5t15 35.5t-14 36zM630 192q17 -28 10.5 -58t-34 -47.5t-57.5 -10.5t-48 34l-6 10l133 76zM288 118q-6 -4 -11 -8q-9 -8 -14 -21l-45 45q18 7 29 25l299 517l259 -259z" />
    <glyph glyph-name="ograve" unicode="&#xf2;" 
d="M901 456q-5 165 -114.5 275t-274.5 114q-165 -4 -274.5 -114t-114.5 -275q2 -122 67 -217t173 -140l-1 -1q26 -12 41 -35l66 -116q2 -3 4 -4l3 -3q4 -6 11 -10l1 -1q2 -1 4 -1q5 -3 12 -4q3 -1 7.5 -1t8.5 1q7 1 12 4q3 0 4 1l1 1q7 4 12 10q0 1 2 2.5t3 4.5l63 109
q16 28 44 42v0q107 45 172.5 140t67.5 218zM591 182v0q-17 -5 -28 -18l-51 -89l-47 80q-10 20 -32 26v0q-91 28 -147.5 101.5t-58.5 172.5q3 122 83.5 202t201.5 83q121 -3 201.5 -83t83.5 -202q-2 -99 -58.5 -172.5t-147.5 -100.5z" />
    <glyph glyph-name="oacute" unicode="&#xf3;" 
d="M908 811q-2 -1 -3 -1v1h-794q-24 -1 -40 -17t-16 -40t16 -40.5t40 -16.5h794v0h3q24 0 40 16.5t16 40.5t-16 40t-40 17zM829 315h1l-280 280q-18 17 -41 17q-7 0 -14 -2l-11 -4q-8 -4 -15 -11l-280 -280v0l-2 -2q-16 -17 -16 -40t17 -40t39.5 -17t40.5 17l1 2h1l182 182
v-429h1l-1 -2q1 -24 17 -40t40 -16t40 16t17 40v2v0v430l183 -183h1l1 -2q17 -17 40 -17t40 17t17 40t-17 40z" />
    <glyph glyph-name="eegrave" unicode="&#xc8;" 
d="M736 282q1 -22 15.5 -36.5t36 -14.5t36 14.5t14.5 36t-14.5 36t-36 14.5t-36 -14.5t-15.5 -35.5zM665 614q1 -32 23 -54t54.5 -22t54 22t21.5 54.5t-21.5 54t-54 21.5t-54.5 -21.5t-23 -54.5zM973 77h-52v51q0 22 -14.5 36.5t-36.5 14.5t-36 -14.5t-15 -36.5v-51h-51
q-22 -1 -36.5 -15.5t-14.5 -36t14.5 -36t36.5 -14.5h51v-52q1 -21 15 -35.5t36 -14.5t36.5 14.5t14.5 35.5v52h52q21 0 35.5 14.5t14.5 36t-14.5 36t-35.5 15.5zM614 26v0h-460v244l143 143l178 -181q12 -11 27 -14t29 3q12 9 65 61l60 58l95 -95q14 -14 36 -14t36.5 14.5
t15.5 36.5q-1 25 -19 39l-128 128q-15 15 -35.5 15t-36.5 -15l-107 -107l-181 180q-15 15 -35.5 15t-36.5 -15l-106 -107v327h716v-460q1 -22 15.5 -36.5t36 -14.5t36 14.5t15.5 36.5l-1 3v509q0 22 -14.5 36t-36.5 15h-819q-21 -1 -35.5 -15t-15.5 -36v0v-820q1 -21 15 -35
t35 -15v-1h513q22 1 36.5 15.5t14.5 36t-14.5 36t-36.5 15.5z" />
    <glyph glyph-name="eeacute" unicode="&#xc6;" 
d="M922 845h-820q-21 -1 -35.5 -15.5t-15.5 -35.5v-820q1 -21 15.5 -35.5t35.5 -15.5h820q21 1 35.5 15.5t15.5 35.5v820q-1 21 -15.5 35.5t-35.5 15.5zM154 742h307v-716h-307v716zM870 26h-307v307h307v-307zM563 435v307h307v-307h-307z" />
    <glyph glyph-name="uugrave" unicode="&#xd9;" 
d="M956 12l-326 326l107 107v0l2 2l129 61v0q9 4 16 11q15 16 15 36.5t-15 35.5l-290 290q-16 15 -36 15t-36 -15q-7 -7 -11 -15v0l-62 -130l-290 -290l-124 -60q-11 -3 -20 -12q-15 -16 -15 -36t15 -36l290 -290q15 -15 35.5 -15t36.5 15q9 9 12 20l59 124l110 110
l326 -326q16 -15 36.5 -15t35.5 15.5t15 35.5t-15 36zM184 350l169 -169l-23 -49l-196 195zM413 266l-145 144l218 218l144 -145zM716 542l-171 171l24 49l196 -196z" />
    <glyph glyph-name="ocircumflex" unicode="&#xf4;" 
d="M896 461q-4 163 -112.5 271.5t-271.5 112.5q-163 -4 -271.5 -112.5t-112.5 -271.5q0 -59 17 -113t47 -100v0l18 -24l147 -147v-115q0 -17 11 -27.5t27 -11.5h231v1l3 -1q16 1 27 11.5t11 27.5v115l142 140q12 14 22 30l1 1v0q30 46 47 100t17 113zM591 0h-157v77h157v-77
zM783 316v0l-1 -2q-20 -36 -48 -66l-91 -94h-262l-92 96q-15 16 -31 40l-18 26h1q-35 65 -36 145q3 130 90 217t217 90q131 -3 217.5 -90t89.5 -217q-1 -80 -36 -145zM556 551q-27 12 -54 8l-4 -1q-6 -1 -18 -5l-13 -4q-13 -6 -24 -16l-3 -3q-10 -12 -9.5 -26.5t11.5 -25.5
t25.5 -11t26.5 9l8 4q3 2 7 3h6q4 0 9 -2q10 -5 13.5 -14.5t-0.5 -19.5q-6 -15 -0.5 -28.5t19.5 -20t28 -1.5t22 18l2 4q15 39 0.5 76t-52.5 56zM611 667q-46 20 -92.5 20.5t-89 -15.5t-76.5 -48l-4 -3q-9 -12 -9 -26.5t11 -25.5t25.5 -11.5t26.5 9.5l17 12q15 11 29 17
q30 14 63.5 15t65.5 -14q59 -29 79.5 -86.5t-5.5 -117.5h1q-6 -15 -0.5 -28.5t19.5 -20t28 -2t22 18.5v0l2 4q36 89 4.5 174t-117.5 128z" />
    <glyph glyph-name="uacute" unicode="&#xda;" 
d="M946 432l-397 397l-6 6q-14 10 -31 10t-31 -10l-403 -403q-15 -16 -15 -36.5t15 -36t35.5 -15.5t36.5 15l311 311v-696q0 -21 14.5 -35.5t36.5 -14.5t36.5 14.5t14.5 35.5v696l311 -311q16 -15 36.5 -15t36 15.5t15.5 36t-16 36.5z" />
    <glyph glyph-name="ucircumflex" unicode="&#xdb;" 
d="M0 896v-85h85v-939l420 256l434 -256v939h85v85h-1024zM759 521l-106 -107l25 -151q2 -15 -9.5 -24t-25.5 -3l-131 72l-132 -72q-13 -6 -24.5 3t-9.5 24l25 151l-107 107q-10 11 -5.5 25.5t19.5 17.5l147 22l65 138q8 12 22 12t21 -12l66 -138l147 -22q14 -3 18.5 -17.5
t-5.5 -25.5z" />
    <glyph glyph-name="yacute" unicode="&#xdd;" 
d="M893 687l42 41l-83 83l-328 -327q-85 54 -183 44.5t-174 -82.5q-84 -88 -84 -202t84 -202q88 -83 202 -83t202 83q73 76 82 174.5t-45 184.5l84 84l38 -37l79 79l-38 38l41 40l78 -78l81 82zM456 159q-38 -37 -88 -37t-89 37q-37 38 -37 88t37 89q39 37 89 37t88 -37
q37 -39 37 -89t-37 -88z" />
    <glyph glyph-name="percent" unicode="%" 
d="M658 530h-107v-438h107v438zM951 750h-293v73q0 31 -21 51.5t-52 21.5h-146q-31 -1 -51.5 -21.5t-21.5 -51.5v-73h-292q-31 -1 -52 -21.5t-22 -51.5v-73h147v-658q0 -31 21 -52t52 -21h585q31 0 51.5 21t21.5 52v658h146v73q-1 31 -21.5 51.5t-51.5 21.5zM732 19h-439
v585h439v-585zM473 530h-107v-438h107v438z" />
    <glyph glyph-name="odieresis" unicode="&#xe7;" 
d="M948 32l-166 166q37 50 57.5 109.5t20.5 126.5q-4 169 -116.5 281.5t-281.5 116.5q-169 -4 -281.5 -116.5t-116.5 -281.5q4 -169 116.5 -281.5t281.5 -116.5q67 0 126.5 20.5t109.5 57.5l166 -166q15 -14 36.5 -11.5t39.5 20.5t20 39t-12 36zM462 149q-121 4 -201 84
t-83 201q3 121 83 201t201 83q121 -3 201 -83t83 -201q-3 -121 -83 -201t-201 -84zM519 490v114q0 24 -16 40t-40.5 16t-40.5 -16t-16 -40v-114h-114q-24 0 -40 -16t-16 -40.5t16 -40.5t40 -16h114v-114q0 -24 16 -40t40.5 -16t40.5 16t16 40v114h114q24 0 40 16t16 40.5
t-16 40.5t-40 16h-114z" />
    <glyph glyph-name="otilde" unicode="&#xe8;" 
d="M948 32l-166 166q37 50 57.5 109.5t20.5 126.5q-4 169 -116.5 281.5t-281.5 116.5q-169 -4 -281.5 -116.5t-116.5 -281.5q4 -169 116.5 -281.5t281.5 -116.5q67 0 126.5 20.5t109.5 57.5l166 -166q15 -14 36.5 -11.5t39.5 20.5t20 39t-12 36zM462 149q-121 3 -201.5 83.5
t-83.5 201.5q3 121 83.5 201t201.5 83q121 -3 201 -83t83 -201q-3 -121 -83 -201.5t-201 -83.5zM292 490q-24 0 -40 -16t-16 -40.5t16 -40.5t40 -16h341q24 0 40 16t16 40.5t-16 40.5t-40 16h-341z" />
    <glyph glyph-name="eecircumflex1" unicode="&#xea;" 
d="M967 242h-114v114q0 24 -16 40t-40.5 16t-40.5 -16t-16 -40v-114h-114q-24 -1 -40.5 -17t-16.5 -40t16.5 -40t40.5 -17h114v-114q0 -24 16 -40t40.5 -16t40.5 16t16 40v114h114q24 1 40 17t16 40t-16 40t-40 17zM545 60l1 2l-44 29q-111 74 -237 203t-137 258v17l3 22
q10 65 53.5 106.5t103.5 42.5q68 -2 113 -50t47 -118l-1 -11q1 -28 19.5 -46t46.5 -18q23 0 40.5 16.5t21.5 40.5l1 4v8q2 74 47 123t113 51q60 -1 103.5 -42.5t53.5 -106.5q1 -1 3 -26t-5 -55h1q-3 -9 -4 -19q1 -28 19 -46t45 -18q22 0 38 13t23 33h1q10 39 10 79v15
q-1 13 -2 23l-2 18q-17 113 -96 185t-188 75q-68 -1 -126 -30.5t-98 -82.5q-40 52 -98 82t-126 31q-109 -2 -188 -74.5t-96 -185.5l-3 -22q-1 -9 -1 -24v-10q25 -225 220.5 -397t257.5 -202l4 -1q7 -4 16 -6l7 -2v1l7 -2q27 1 45 19t19 45q0 17 -8.5 31t-22.5 22z" />
    <glyph glyph-name="acircumflex1" unicode="&#xc5;" 
d="M964 170h-119v120q-1 25 -18 42t-42 17t-42 -17t-18 -42v-120h-119q-25 0 -42 -17t-17 -42.5t17 -42t42 -17.5h119v-119q1 -26 18 -42.5t42 -16.5t42 16.5t18 42.5v119h119q26 1 42.5 17.5t16.5 42t-16.5 42.5t-42.5 17zM500 309h1l-11 11l-3 2q-24 24 -60 24t-61 -24
l-2 -2l-236 -235v691h597v-277q1 -25 18 -42t42 -17t42 17t18 42v337q-1 25 -18 42t-42 18h-716q-26 -1 -42.5 -18t-17.5 -42v-896q0 -23 18 -41t42 -18t42 17l317 318q15 -11 34 -12q25 1 42 18t18 42q-1 28 -22 45z" />
    <glyph glyph-name="ugrave" unicode="&#xf9;" 
d="M947 787q-15 -1 -24 -10v1l-73 -72q-64 68 -150.5 107t-187.5 40q-171 -3 -295 -104.5t-163 -261.5l-1 -6q-1 -6 -1 -11q1 -29 19.5 -48t47.5 -19q24 0 41.5 14.5t23.5 37.5q27 115 115.5 188t211.5 76q74 -1 136 -30t108 -79l-99 -99h1q-11 -10 -11 -25t9.5 -25
t24.5 -10h266q15 0 25 10t10 26v265q0 15 -9.5 24.5t-24.5 10.5zM905 366q-24 -1 -41.5 -15t-23.5 -37q-27 -116 -116 -189t-211 -76q-74 1 -136 30t-108 79l99 99h-1q11 10 11 25t-9.5 25t-24.5 10h-266q-15 0 -25 -10t-10 -25v-266q0 -15 9.5 -24.5t24.5 -9.5t24 9v-1
l73 73q64 -69 150.5 -108t187.5 -40q169 3 291.5 101.5t163.5 255.5l3 11q2 10 2 16q0 28 -19 47t-48 20z" />
    <glyph glyph-name="uuacute" unicode="&#xfa;" 
d="M984 761l-57 57q-12 12 -28 12t-29 -12l-427 -427l-80 -194l194 80l427 427q12 13 12 29t-12 28zM805 91h-586v586h406l146 146h-625q-31 -1 -51.5 -21.5t-21.5 -51.5v-732q1 -31 21.5 -51.5t51.5 -21.5h732q31 1 51.5 21.5t21.5 51.5v550l-146 -147v-330z" />
    <glyph glyph-name="guillemotleft" unicode="&#xab;" 
d="M882 441q-1 0 -3 -1v1h-616l188 194q15 16 15 37.5t-15.5 37t-36.5 15.5t-37 -15l-277 -287q-16 -17 -15 -39v0v0q0 -22 15 -39l277 -287q16 -15 37 -15t36.5 16t15.5 37t-15 37l-188 194h616v1l3 -1q24 1 40 17t16 40t-16 40t-40 17z" />
    <glyph glyph-name="thorn" unicode="&#xde;" 
d="M946 409q-15 15 -35.5 15t-36.5 -15l-311 -311v696q0 21 -14.5 35.5t-36.5 14.5t-36.5 -14.5t-14.5 -35.5v-696l-311 311q-16 15 -36.5 15t-35.5 -15.5t-15 -36t15 -35.5l398 -399q16 -15 36 -15t36 15l398 399q15 15 15 35.5t-15 36.5z" />
    <glyph glyph-name="eeeacute" unicode="&#xe9;" 
d="M884 617h-139v139q-1 20 -14 33t-33 14h-372q-20 -1 -33 -14t-14 -33v-139h-139q-20 -1 -33 -14t-14 -33v-558q1 -20 14 -33t33 -14h744q20 1 33 14t14 33v558q-1 20 -14 33t-33 14zM186 524h652v-466h-652v466zM372 710h280v-93h-280v93zM715 462q-14 14 -32.5 14
t-33.5 -14l-197 -197l-66 66q-14 13 -32.5 13t-32.5 -14t-14 -32.5t13 -32.5l99 -99q14 -14 32.5 -14t33.5 14l230 230q14 15 14 33.5t-14 32.5z" />
    <glyph glyph-name="eight" unicode="8" 
d="M938 67l-25 32q2 14 2 29t-2 29l25 32q9 5 11.5 15t-2.5 19l-21 38q-6 9 -15.5 11.5t-19.5 -2.5l-39 -6q-23 19 -52 30l-14 36q0 11 -7 18t-18 8h-43q-11 -1 -18 -8t-8 -18l-14 -36q-28 -11 -51 -30l-39 6q-10 5 -19.5 2.5t-15.5 -11.5l-22 -38q-5 -9 -2 -19t12 -15
l25 -32q-2 -14 -2 -29t2 -29l-25 -32q-9 -5 -12 -15t2 -19l22 -38q6 -9 15.5 -11.5t19.5 2.5l39 6q23 -19 51 -30l14 -36q1 -11 8 -18t18 -8h43q11 1 18 8t7 18l14 36q29 11 52 30l39 -6q10 -5 19.5 -2.5t15.5 11.5l21 38q5 9 2.5 19t-11.5 15zM739 0q-54 2 -89.5 38
t-37.5 90q2 54 37.5 90.5t89.5 37.5q54 -1 90 -37.5t37 -90.5q-1 -54 -37 -90t-90 -38zM739 199q-30 -1 -49.5 -21t-19.5 -50t19.5 -50t49.5 -20t50 20t20 50t-20 50t-50 21zM455 573q-48 -1 -80.5 -33t-33.5 -80q1 -49 33.5 -81t80.5 -33q48 1 80.5 33t33.5 81
q-1 48 -33.5 80t-80.5 33zM744 748q-126 120 -289 120t-289 -120q-120 -126 -120 -289t120 -289l253 -253q16 -15 36 -16t34 12l6 6l3 4l23 24q-10 8 -17 20l-22 38q-9 17 -10 37l-17 -17l-217 217q-89 95 -89 217t89 217q95 89 217 89t217 -89q54 -55 75 -124t10 -140h4
q31 0 53.5 -19t27.5 -49l3 -7q33 107 8 216t-109 195z" />
    <glyph glyph-name="j1" unicode="J" 
d="M909 263l-50 63q4 28 4 58t-4 58l50 63q19 11 24 30.5t-5 38.5l-44 75q-11 19 -30.5 24t-38.5 -5l-77 -13q-46 39 -104 61l-28 73q-1 21 -15 35.5t-35 14.5h-88q-21 0 -35 -14.5t-15 -35.5l-28 -73q-57 -21 -103 -60l-78 12q-19 10 -38.5 5t-30.5 -24l-44 -75
q-10 -19 -5 -38.5t24 -30.5l50 -63q-5 -28 -5 -58t5 -58l-50 -63q-19 -11 -24 -30.5t5 -38.5l44 -75q11 -18 30.5 -23.5t38.5 5.5l77 12q46 -39 104 -61l28 -73q1 -21 15 -35.5t35 -14.5h88q21 0 35 14.5t15 35.5l28 73q57 21 103 60l78 -11q19 -11 38.5 -5.5t30.5 23.5
l44 75q10 19 5 38.5t-24 30.5zM512 128q-108 3 -179.5 75t-74.5 181q3 109 74.5 181t179.5 75q108 -3 179.5 -75t74.5 -181q-3 -109 -74.5 -181t-179.5 -75zM512 526q-60 -1 -100 -41.5t-41 -100.5q1 -60 41 -100.5t100 -41.5q60 1 100 41.5t41 100.5q-1 60 -41 100.5
t-100 41.5z" />
    <glyph glyph-name="asterisk" unicode="*" 
d="M512 524q-59 -2 -98.5 -41.5t-41.5 -98.5q2 -59 41.5 -98.5t98.5 -41.5q59 2 98.5 41.5t41.5 98.5q-2 59 -41.5 98.5t-98.5 41.5zM512 337q-20 1 -33 14t-13 33t13 33t33 13t33 -13t13 -33t-13 -33t-33 -14zM864 342l-27 27l1 15l-1 15l27 27q34 21 43.5 56.5t-9.5 70.5
l-46 81q-21 34 -57 43.5t-71 -9.5l-37 -9q-12 7 -25 14l-10 37q-1 39 -27.5 65.5t-65.5 27.5h-94q-39 -1 -65.5 -27.5t-27.5 -65.5l-10 -37q-13 -7 -25 -14l-37 9q-35 19 -71 9.5t-56 -43.5l-47 -81q-19 -35 -9.5 -70.5t43.5 -56.5l27 -27l-1 -15l1 -15l-27 -27
q-34 -21 -43.5 -56.5t9.5 -70.5l47 -81q20 -33 56 -43t71 9l37 9q12 -7 25 -14l10 -37q1 -39 27.5 -65.5t65.5 -27.5h94q39 1 65.5 27.5t27.5 65.5l10 37q13 7 25 14l37 -9q35 -19 71 -9t57 43l46 81q19 35 9.5 70.5t-43.5 56.5zM745 384q0 -25 -5 -49l57 -62q9 -5 11.5 -14
t-2.5 -18l-23 -40q-6 -8 -15 -10.5t-17 1.5l-83 19q-36 -33 -84 -48l-25 -82q-1 -9 -7.5 -16t-16.5 -7h-46q-10 0 -16.5 7t-7.5 16l-24 81q-48 16 -85 49l-83 -19q-8 -4 -17 -1.5t-15 10.5l-23 40q-5 9 -2.5 18t11.5 14l57 62q-5 24 -5 49t5 49l-57 62q-9 5 -11.5 14t2.5 18
l23 40q6 9 15 11t17 -2l83 -20q36 34 85 50l24 81q1 9 7.5 16t16.5 7h46q10 0 16.5 -7t7.5 -16l24 -81q48 -16 85 -49l83 19q8 4 17 2t15 -11l23 -40q5 -9 2.5 -18t-11.5 -14l-57 -62q5 -24 5 -49z" />
    <glyph glyph-name="i1" unicode="I" 
d="M885 710h-744q-19 0 -32.5 -13.5t-13.5 -32.5v-604q0 -20 13.5 -33t32.5 -14h744q19 1 32.5 14t13.5 33v604q0 19 -13.5 32.5t-32.5 13.5zM838 106h-650v511h650v-511zM479 264l1 1l1 -1q15 -14 33.5 -14t32.5 14l230 230q13 14 13 32.5t-13.5 32.5t-32 14t-33.5 -14
l-198 -198l-198 198q-15 14 -33.5 14t-32.5 -14t-14 -32.5t14 -32.5z" />
    <glyph glyph-name="h1" unicode="H" 
d="M926 28v2q-17 99 -72 177t-139 124q36 38 56 87t20 105q-3 119 -81.5 198t-197.5 82q-119 -3 -197.5 -82t-81.5 -198q0 -56 20 -105t56 -87q-86 -48 -142 -128.5t-70 -181.5v0v-10q0 -38 25.5 -64t63.5 -29h652q38 3 63.5 29t26.5 64zM785 11v0h-546q-17 1 -28 12.5
t-12 27.5l1 7q1 6 4 11q25 73 78.5 126.5t127.5 78.5q16 4 26.5 16t10.5 30q0 15 -8 26.5t-21 16.5v0q-42 25 -67 67t-25 93q2 79 54.5 132t131.5 55q79 -2 131.5 -55t54.5 -132q0 -51 -24.5 -92.5t-66.5 -66.5v-1q-13 -5 -21.5 -16.5t-8.5 -27.5t10 -28.5t27 -16.5
q73 -24 127 -77.5t79 -127.5q5 -8 5 -18q-1 -16 -12 -27.5t-28 -12.5z" />
    <glyph glyph-name="g1" unicode="G" 
d="M1023 291q-3 68 -43 119q-36 46 -98 71q19 71 -3 117q-26 47 -73 64q-21 9 -48.5 11t-63.5 -3q-31 -4 -57 -13l-10 -3q2 20 -1 38q-1 11 -5 24q-8 25 -26 46q-35 40 -99 42q-46 0 -102 -22q-20 -8 -41 -20q-18 -9 -37 -21.5t-40 -28.5q-60 -45 -110 -101
q-52 -58 -82 -106q-34 -52 -57 -113q-21 -55 -24 -110q0 -30 1 -48q8 -75 54 -135l10 -13q42 -49 110 -87q75 -43 161 -63q71 -16 152 -16q17 0 36 1q103 6 178 30q78 25 149 73q61 42 103 93q10 13 19 26q12 19 18 31q3 4 5 8q26 54 24 109zM916 223q-2 -2 -3 -4
q-6 -13 -13.5 -24t-15.5 -21q-33 -40 -83 -74q-59 -41 -124 -61.5t-154 -25t-162.5 12t-135.5 52.5q-55 30 -87 68l-6 8q-31 40 -35 89q-2 15 -2 36q3 38 19 81q19 52 47 95t75 95q44 49 97 90q17 13 33 23.5t31 18.5t31 14q40 16 70 16v0q14 0 19.5 -3.5t6.5 -5.5
q6 -8 8 -14l2 -9q1 -5 0 -17t-6 -34l-5 -22q-3 -19 1.5 -31t8.5 -16q16 -21 47 -22v0q8 1 17 3.5t23 9.5q27 13 45.5 19t40.5 9q44 5 67 -3q5 -1 11.5 -5.5t11.5 -14.5q2 0 2.5 -12t-6.5 -40l-6 -14q-4 -9 -5.5 -21.5t4 -27.5t16.5 -23t19 -11.5t22 -8.5q42 -15 65 -45
q22 -27 24 -66q1 -31 -15 -64zM421 339h-47v46q0 20 -13 33t-33 13t-33 -13t-14 -33v-46h-46q-20 -1 -33 -14t-13 -32.5t13 -33t33 -13.5h46v-47q1 -19 14 -32.5t33 -13.5t33 13.5t13 32.5v47h47q19 0 32.5 13.5t13.5 33t-13.5 32.5t-32.5 14zM653 339q20 0 33 13t13 33
t-13 33t-33 13t-33 -13t-13 -33t13 -33t33 -13zM653 246q-20 -1 -33 -14t-13 -32.5t13 -33t33 -13.5t33 13.5t13 33t-13 32.5t-33 14zM560 339q-20 -1 -33 -14t-13 -32.5t13 -33t33 -13.5t33 13.5t13 33t-13 32.5t-33 14zM746 339q-20 -1 -33 -14t-13 -32.5t13 -33t33 -13.5
t33 13.5t13 33t-13 32.5t-33 14z" />
    <glyph glyph-name="f1" unicode="F" 
d="M512 849q-198 -5 -329 -136t-136 -329q5 -198 136 -329t329 -136q198 5 329.5 136t135.5 329q-4 198 -135.5 329t-329.5 136zM512 12q-158 4 -263 109t-109 263q4 158 109 263t263 109q158 -4 263 -109t109 -263q-4 -158 -109 -263t-263 -109zM749 596q-4 14 -16 21
t-26 3v1l-303 -105v0q-9 -2 -15.5 -9t-9.5 -16v0l-105 -302v-1q-2 -8 0 -17q4 -15 16 -22t27 -3v0l303 105l-1 1q9 2 15.5 9t8.5 15h2l105 302l-1 1q2 8 0 17zM365 237l63 181l118 -118zM596 349l-118 118l181 63z" />
    <glyph glyph-name="Ehome" unicode="E" 
d="M959 438l-4 4l-410 364q-15 13 -33.5 13t-32.5 -13l-414 -368q-14 -14 -14 -32.5t14 -32.5t32.5 -14t33.5 13l9 8v-394q0 -19 13 -32.5t33 -13.5h652q19 0 32.5 13.5t13.5 32.5v394l9 -8q15 -13 33.5 -13t32.5 14t14 32.5t-14 32.5zM791 33h-558v430l279 248l279 -248
v-430zM372 266v-140q1 -20 14 -33t33 -13t33 13t13 33v93h93v-93q1 -20 14 -33t33 -13t33 13t14 33v140q-1 19 -14 32.5t-33 13.5h-186q-20 0 -33 -13.5t-14 -32.5z" />
    <glyph glyph-name="t" unicode="t" 
d="M666 384h-103v102q0 22 -14.5 36.5t-36.5 14.5t-36.5 -14.5t-14.5 -36.5v-153q0 -22 14.5 -36.5t36.5 -14.5h154q21 0 35.5 14.5t14.5 36.5t-14.5 36t-35.5 15zM563 739v55h53q22 0 36.5 14.5t14.5 36.5t-14.5 36t-36.5 15h-208q-21 -2 -34 -16t-13 -35t13 -35.5
t34 -15.5h53v-55q-155 -22 -255 -134t-104 -272q5 -174 120.5 -289.5t289.5 -120.5q174 5 289.5 120.5t120.5 289.5q-4 160 -104 272t-255 134zM512 26q-131 3 -217.5 89.5t-89.5 217.5q3 130 89.5 217t217.5 90q131 -3 217.5 -90t89.5 -217q-3 -131 -89.5 -217.5
t-217.5 -89.5z" />
    <glyph glyph-name="udieresiss" unicode="&#xfc;" 
d="M667 435h-102v154q-1 22 -15.5 36t-36 14t-36 -14t-15.5 -36v-205q1 -22 15.5 -36.5t36.5 -14.5h153q22 0 36.5 14.5t14.5 36.5t-14.5 36.5t-36.5 14.5zM514 845q-196 -5 -326 -135t-135 -326q5 -196 135 -326t326 -135q195 5 325 135t135 326q-5 196 -135 326t-325 135z
M514 26q-153 4 -254 105t-105 253q4 152 105 253.5t254 104.5q152 -3 253 -104.5t105 -253.5q-4 -152 -105 -253t-253 -105z" />
    <glyph glyph-name="eacute" unicode="&#xf6;" 
d="M0 213v-341h1024v341h-1024zM853 555h-170v256h-86v-256h-170v256h-86v-256h-170v-256h682v256z" />
    <glyph glyph-name="yacute1" unicode="&#xfd;" 
d="M922 811h-820q-43 -1 -72 -30t-30 -73v-561q1 -43 30 -72t72 -30h820q43 1 72 30t30 72v561q-1 44 -30 73t-72 30zM907 621l-357 -255q-17 -16 -38 -16t-38 16l-357 255q-15 15 -15 35.5t15.5 36t36 15.5t36.5 -15l322 -219l322 219q16 15 36.5 15t36 -15.5t15.5 -36
t-15 -35.5z" />
    <glyph glyph-name="udieresis" unicode="&#xdc;" 
d="M930 469l-459 -454l-44 -143l138 50l459 454zM853 725q-1 36 -25 60.5t-60 25.5h-683q-36 -1 -60 -25.5t-25 -60.5v-768q1 -36 25 -60t60 -25h268l23 176l477 475v202zM457 384h-286v85h372zM629 555h-458v85h543zM768 -128q36 1 60 25t25 60v122l-207 -207h122z" />
    <glyph glyph-name="thornn" unicode="&#xfe;" 
d="M1024 612q-1 24 -17 40t-40 16h-153l-81 141q-7 14 -20.5 22t-29.5 8h-337q-16 0 -29.5 -8t-20.5 -22l-81 -141h-158q-24 0 -40 -16t-17 -40v-598q1 -24 17 -40t40 -17h910q24 1 40 17t17 40v598zM650 725l78 -135q7 -16 20.5 -25.5t32.5 -9.5v0h129v-484h-796v484h134
q18 0 32 9.5t21 25.5l78 135h271zM299 341q2 -90 62 -150.5t151 -62.5q91 2 151 62.5t62 150.5q-2 91 -62 151t-151 63q-91 -3 -151 -63t-62 -151zM597 341q-1 -36 -25 -60t-60 -24t-60 24t-24 60.5t24 60.5t60 24t60 -24t25 -61z" />
    <glyph glyph-name="ggermandbls" unicode="&#xdf;" 
d="M409 282l99 33l316 315q13 15 13 33.5t-14 32.5t-32.5 14t-32.5 -14l-316 -315zM791 477q-20 0 -33 -13.5t-13 -32.5v-280h-466v466h280q19 0 32.5 13t13.5 33t-13.5 33t-32.5 14h-326q-20 -1 -33 -14t-14 -33v-558q1 -20 14 -33t33 -14h558q20 1 33 14t14 33v326
q-1 19 -14 32.5t-33 13.5z" />
    <glyph glyph-name="s" unicode="s" 
d="M256 717h512v-321l102 102v270q0 22 -14.5 36.5t-36.5 14.5h-614q-22 0 -36.5 -14.5t-14.5 -36.5v-717q0 -22 14.5 -36t36.5 -15h215q-4 18 1 36t19 32l34 34h-218v615zM666 614h-308q-21 0 -35.5 -14.5t-14.5 -36.5t14.5 -36t35.5 -15h308q21 1 35.5 15t14.5 36
t-14.5 36.5t-35.5 14.5zM819 0q22 1 36.5 15t14.5 36v65l-116 -116h65zM1003 406l-36 37q-8 7 -18 7t-18 -7l-344 -344l-87 -160l159 87l344 344q8 8 8 18.5t-8 17.5zM666 410h-308q-21 -1 -35.5 -15.5t-14.5 -36t14.5 -36t35.5 -15.5h308q21 1 35.5 15.5t14.5 36t-14.5 36
t-35.5 15.5z" />
    <glyph glyph-name="v" unicode="v" 
d="M895 102h-50v512q-1 22 -15.5 36.5t-35.5 15.5h-128v102q-1 22 -15.5 36.5t-35.5 14.5h-197q-22 0 -36 -14.5t-15 -36.5v-257h-137q-21 0 -35.5 -14.5t-15.5 -36.5v-358h-50q-22 0 -37 -14.5t-15 -36.5t15 -36t37 -15h766q22 1 37 15t15 36t-15 36.5t-37 14.5zM367 102
h-85v307h85v-307zM563 102h-94v615h94v-615zM742 102h-77v461h77v-461z" />
    <glyph glyph-name="q" unicode="q" 
d="M1024 666q0 2 -1 4q1 12 -6 24q-8 12 -22 18l-4 1q-6 2 -13 3l-5 1l-3 -1q-6 0 -10.5 -1.5t-8.5 -2.5l-3 -1l-231 -123v129q-1 22 -15.5 36t-35.5 15h-615q-22 -1 -36 -15t-15 -36v-615q1 -21 15 -35.5t36 -15.5h615q21 1 35.5 15.5t15.5 35.5v139l230 -132l3 -1
q5 -2 10 -3l10 -2l3 -1l6 2q5 0 10 1.5t9 4t8 6t7 8.5l4 4l1 3q2 5 3.5 10t1.5 10l1 3v512zM614 154h-512v512h512v-512zM717 481l205 108v-347l-205 117v122z" />
    <glyph glyph-name="ordmasculine" unicode="&#xba;" horiz-adv-x="1025" 
d="M512 896q-218 -5 -362.5 -149.5t-149.5 -362.5q5 -214 146 -357.5t354 -153.5h24q213 10 354 153.5t146 357.5q-5 218 -149.5 362.5t-362.5 149.5zM824 93q-41 92 -123 148t-189 58q-106 -2 -188.5 -58t-122.5 -148q-55 58 -85 132t-31 159q5 181 125.5 301.5
t301.5 125.5q181 -5 301.5 -125.5t125.5 -301.5q-1 -85 -31 -159t-84 -132zM508 -128l7 1h-14zM683 469q-2 73 -50 121t-121 50q-72 -2 -120.5 -50t-49.5 -121q1 -72 49.5 -120t120.5 -50q73 2 121 50t50 120z" />
    <glyph glyph-name="ae" unicode="&#xe6;" 
d="M516 811q158 -3 272 -97.5t147 -244.5h87q-35 186 -173 304.5t-333 122.5q-195 -4 -333.5 -122.5t-172.5 -304.5h87q33 150 147 244.5t272 97.5zM516 -43q-134 2 -237.5 72t-154.5 184h-92q55 -151 184.5 -244.5t299.5 -96.5q170 3 299 96.5t185 244.5h-92
q-51 -114 -155 -184t-237 -72zM341 384q2 -72 50 -120.5t121 -50.5q72 2 120.5 50.5t50.5 120.5q-2 73 -50.5 121t-120.5 50q-73 -2 -121 -50t-50 -121z" />
    <glyph glyph-name="brokenbar" unicode="&#xa6;" 
d="M666 614h-308q-21 0 -35.5 -14.5t-14.5 -36.5t14.5 -36t35.5 -15h308q21 1 35.5 15t14.5 36t-14.5 36.5t-35.5 14.5zM666 410h-308q-21 -1 -35.5 -15.5t-14.5 -36t14.5 -36t35.5 -15.5h308q21 1 35.5 15.5t14.5 36t-14.5 36t-35.5 15.5zM358 102h-102v615h512v-410
q0 -22 14.5 -36t36.5 -14t36.5 14t14.5 36v461q0 22 -14.5 36.5t-36.5 14.5h-614q-22 0 -36.5 -14.5t-14.5 -36.5v-717q0 -22 14.5 -36t36.5 -15h153q22 1 36.5 15t14.5 36t-14.5 36.5t-36.5 14.5zM744 95q-15 0 -25 -10.5t-10.5 -26t-10.5 -26t-25 -10.5h-106
q-15 0 -25 10.5t-10 26.5v36q0 16 10 26t25 10.5t25 11t10 26t-10 25.5t-25 11q-45 -1 -75 -32t-31 -78v-36q1 -47 31 -78t75 -32h106q46 1 76 32t31 78q-1 15 -11 25.5t-25 10.5zM815 205h-106q-45 -1 -75 -32t-31 -78q0 -15 10 -25.5t25 -10.5t25 10.5t10.5 26t10.5 25.5
t25 11h106q15 -1 25 -11t11 -26v-36q-1 -16 -11 -26.5t-25 -10.5t-25 -10.5t-10 -26t10 -26t25 -10.5q45 1 75 32t32 78v36q-2 47 -32 78t-75 32z" />
    <glyph glyph-name="section" unicode="&#xa7;" 
d="M512 859q-202 -5 -336 -139t-139 -336q5 -202 139 -336t336 -139q202 5 336 139t139 336q-5 202 -139 336t-336 139zM512 17q-156 4 -259.5 107.5t-107.5 259.5q4 156 107.5 259.5t259.5 107.5q156 -4 259.5 -107.5t107.5 -259.5q-4 -156 -107.5 -259.5t-259.5 -107.5z
M256 201h512v146h-512v-146zM256 420h512v147h-512v-147z" />
    <glyph glyph-name="ordfeminine" unicode="&#xaa;" 
d="M970 582h-132q17 37 18 80q-3 83 -57.5 138t-137.5 57q-57 -1 -102 -29t-70 -74q-44 33 -103 34q-73 -2 -121.5 -50.5t-50.5 -121.5q0 -18 4 -34h-164q-19 -1 -32 -14t-14 -32v-213q1 -19 14 -32t32 -14h15v-320q0 -20 13 -32.5t32 -13.5h794q19 1 32 13.5t13 32.5v320
h17q20 1 32.5 14t13.5 32v213q-1 19 -13.5 32t-32.5 14zM386 697q23 -1 41.5 -12t28.5 -30v0v-72h2q-1 -1 -2 -1h-2h-136q-12 12 -12 34q1 35 23.5 57.5t56.5 23.5zM466 1h-306v275h306v-275zM466 368h-366v122h366v-122zM558 665v13h1q7 38 34.5 62.5t67.5 25.5
q44 -2 73 -31t30 -73q0 -25 -10.5 -45.5t-28.5 -34.5h-127q-2 0 -3.5 -0.5t-2.5 0.5h-34v83zM862 1h-304v275h304v-275zM924 368h-366v122h366v-122z" />
    <glyph glyph-name="logicalnot" unicode="&#xac;" 
d="M939 619q-1 24 -17 40t-40 16t-40 -16t-16 -40v-285h-563l188 194q15 16 15 37.5t-15.5 37.5t-36.5 16t-37 -16l-277 -286q-15 -18 -14 -40v0q-1 -22 14 -39l277 -287q16 -15 37 -15t36.5 16t15.5 37t-15 37l-188 194l616 1l3 -1q24 1 40 17t17 40v342z" />
    <glyph glyph-name="questiondownn" unicode="&#xbf;" horiz-adv-x="1025" 
d="M1024 384q-5 218 -149.5 362t-362.5 150q-218 -6 -362 -150t-150 -362q6 -218 150 -362.5t362 -149.5h10q214 10 355.5 153.5t146.5 358.5zM333 187q14 6 22.5 18.5t9.5 28.5q-1 25 -20 40l-3 2q-27 18 -43.5 45.5t-16.5 62.5q1 54 37 90.5t91 37.5q54 -1 90 -37.5
t38 -90.5q-1 -34 -16.5 -62t-42.5 -45l-1 -1q-21 -15 -21 -42q0 -15 7 -26.5t19 -18t23 -13.5q38 -24 60 -63t23 -87q0 -24 -6 -45q-35 -7 -71 -7q-79 1 -149 28.5t-124 76.5q11 36 35.5 64t58.5 44v0zM512 794q174 -5 289.5 -120.5t120.5 -289.5q-1 -53 -13.5 -102
t-36.5 -93q-27 61 -78 104q24 29 37.5 65t13.5 77q-2 86 -53.5 147.5t-133.5 78.5h-8q-21 -1 -35.5 -15.5t-15.5 -35.5q1 -20 12.5 -33.5t29.5 -17.5v0q44 -10 72 -43.5t29 -80.5q0 -34 -16 -61.5t-42 -45.5l-2 -1q-20 -15 -21 -41q0 -7 3 -15v0v-2l4 -8q7 -13 19 -19.5
t24 -14.5q36 -23 58 -59.5t24 -81.5q-45 -43 -102 -70v10q0 65 -27.5 120.5t-74.5 94.5q24 30 37.5 66t13.5 77q-2 98 -67 163t-163 67q-98 -2 -163 -67t-68 -163q0 -41 13.5 -77t37.5 -66q-39 -32 -64 -76q-30 48 -46.5 103t-17.5 116q5 174 120.5 289.5t289.5 120.5z" />
    <glyph glyph-name="currency" unicode="&#xa4;" 
d="M761 421zM797 421zM761 421zM947 691q-1 54 -37 90.5t-91 37.5h-205q-25 0 -47.5 -9t-39.5 -26l-413 -412q-37 -38 -37 -88t37 -89l209 -209q18 -18 41 -27.5t48 -9.5t48 9.5t40 27.5l407 406q4 4 6 8q34 36 34 86v205zM841 464l-4 -4l-4 -5l-401 -401q-9 -8 -20.5 -8
t-19.5 8l-210 210q-8 8 -8 19.5t8 20.5l401 402l9 7q3 3 8.5 6t13.5 4l205 -1q14 0 22.5 -9t8.5 -22v-204q-1 -16 -9 -23zM645 623q-21 -22 -21 -51t21.5 -51t50.5 -22t51 22t22 51t-22 50.5t-51 21.5t-51 -21z" />
    <glyph glyph-name="gupiaomini" unicode="&#xa2;" 
d="M85 -43v86l256 255l171 -170l296 295l131 -128v-338h-854zM853 642l-341 -341l-171 170l-256 -255v167l256 256l171 -171l257 257h-86l-86 86h342v-343l-86 86v88z" />
    <glyph glyph-name="history" unicode="," 
d="M247 412h210v69h-210v-69zM562 570v69h-315v-69h315zM697 412q-102 -3 -169 -69.5t-70 -166.5q3 -101 70 -167.5t169 -68.5q101 2 168.5 68.5t69.5 167.5q-2 100 -69.5 166.5t-168.5 69.5zM698 6q-73 2 -121.5 49.5t-50.5 119.5q2 72 50.5 119.5t121.5 49.5
q73 -2 121 -49.5t50 -119.5q-2 -72 -50 -119.5t-121 -49.5zM720 271h-52v-120v0v-2h141v53h-89v69zM156 765h619v-299h69v368h-69v-1h-619v1h-68v-789h1v-19h317v69h-250v670z" />
    <glyph glyph-name="chatwebim" unicode="-" 
d="M934 160h-153v-169h-61v2l-127 166h-111v63h124l114 -149v149l153 -1v312h-79v61h140v-434zM472 301l-139 -170h-61v170l-185 2v474h616v-473zM642 717h-494v-356h185v-155l126 153v2h183v356z" />
    <glyph glyph-name="car" unicode="&#xaf;" horiz-adv-x="1210" 
d="M855 330q-31 0 -51.5 -21t-20.5 -52t20.5 -51.5t51.5 -20.5t52 20.5t21 51.5t-21 52t-52 21zM352 330q-31 0 -51.5 -21t-20.5 -52t20.5 -51.5t51.5 -20.5t51.5 20.5t20.5 51.5t-20.5 52t-51.5 21zM988 471h-2l-25 80q-22 73 -38 135q-17 53 -48.5 64.5t-34.5 9.5h-472
q-4 2 -35.5 -9.5t-48.5 -64.5q-15 -62 -38 -135l-25 -80h-1q-5 2 -41.5 -15.5t-42.5 -82.5v-292q1 -17 12.5 -28.5t25.5 -12.5h105q0 -5 0.5 -7t0.5 -8q3 -44 27 -51.5t27 -4.5h40q39 3 45.5 27t4.5 27l1 17h357q0 -5 0.5 -7t1.5 -8q3 -44 26.5 -51.5t26.5 -4.5h40
q39 3 45.5 27t4.5 27l2 17h107q14 1 24.5 13t10.5 28v294q-5 65 -41.5 81.5t-41.5 14.5zM345 626q14 44 39.5 53.5t28.5 7.5h375q3 2 28.5 -7.5t39.5 -53.5q13 -49 33 -100t22 -55h-615l19 55q17 51 30 100zM1000 160q0 -20 -13 -33.5t-32 -14.5h-702q-19 1 -32 14.5
t-13 33.5v195q0 20 13 32.5t32 12.5h702q19 0 32 -12.5t13 -32.5v-195z" />
    <glyph glyph-name="longwb" unicode="&#xb0;" 
d="M795 -38h-566q-29 1 -48 20t-20 48v708q1 29 20 48t48 20h566q29 -1 48 -20t20 -48v-708q-1 -29 -20 -48t-48 -20zM795 717q-1 9 -6.5 14.5t-14.5 5.5h-525q-9 0 -14.5 -5.5t-6.5 -14.5v-666q1 -9 6.5 -14.5t14.5 -5.5h525q9 0 14.5 5.5t6.5 14.5v666zM685 316h-338
q-15 0 -24.5 9.5t-9.5 24t9.5 24t24.5 9.5h338q14 0 23.5 -9.5t9.5 -24t-9.5 -24t-23.5 -9.5zM683 527h-339q-14 0 -23.5 9.5t-9.5 24t9.5 24t23.5 9.5h338q15 0 24.5 -9.5t9.5 -24t-9.5 -24t-23.5 -9.5z" />
    <glyph glyph-name="sports" unicode="&#xe600;" 
d="M512 833q-191 -5 -317.5 -131.5t-131.5 -317.5q5 -191 131.5 -317.5t317.5 -131.5q191 5 317.5 131.5t131.5 317.5q-5 191 -131.5 317.5t-317.5 131.5zM876 424q-73 -1 -139 -23.5t-121 -63.5l-47 47l229 229q32 -40 52 -87.5t26 -101.5zM512 441l-41 41q50 52 81.5 118
t40.5 142q83 -20 148 -72zM510 752q-6 -61 -31 -115t-66 -97l-131 130q48 39 105.5 60.5t122.5 21.5zM226 614l126 -127q-44 -29 -96 -45.5t-109 -16.5q6 53 26 101t53 88zM147 343v0q74 0 141 22.5t122 63.5l45 -45l-229 -228q-32 39 -52 86.5t-27 100.5zM436 26
q-86 19 -153 72l229 229l44 -44q-50 -52 -80.5 -117t-39.5 -140zM519 17q7 61 31.5 113.5t63.5 94.5l126 -126q-46 -37 -102 -58.5t-119 -23.5zM798 156l-123 123q43 29 94 45.5t106 17.5q-6 -52 -26 -99t-51 -87z" />
    <glyph glyph-name="trip" unicode="&#xe601;" 
d="M847 -18q-9 -17 -25 -36.5t-31 4.5l-73 149q-56 114 -108 220l158 119q22 -102 46 -224.5t37 -177.5q2 -8 2.5 -24t-6.5 -30zM749 516v-1l-167 -136v0q-59 -46 -117 -88.5t-115 -85.5q2 -37 2.5 -90t-1.5 -72q-7 -21 -26 -41t-21 -22q-14 -19 -15 17.5t-27 141.5
q-21 -11 -47.5 -16.5t-32.5 -0.5q-4 7 1.5 32t15.5 42q-94 44 -121.5 54t-7.5 21q2 2 24.5 18.5t43.5 19.5q17 0 62.5 -6.5t79.5 -14.5q51 51 105 99.5t108 99.5q-84 65 -214 162l-168 127q-21 19 0 32.5t39 19.5q14 5 29.5 2t21.5 -6q72 -31 230.5 -95.5t214.5 -87.5
q38 35 65 63t40 40q70 60 124 77t76 -9.5t1.5 -83.5t-88.5 -119q-14 -12 -45 -36t-70 -57z" />
    <glyph glyph-name="dollar" unicode="&#xe602;" 
d="M562 337q70 0 110.5 -24t41.5 -72q-5 -76 -56.5 -93.5t-95.5 -14.5v204zM462 435q-67 1 -109 29t-43 72q0 45 36.5 73.5t115.5 28.5v-203zM462 -63h100v98q118 0 183.5 49.5t66.5 156.5q-2 105 -69 149.5t-181 42.5v204q80 -2 116.5 -32t36.5 -68h98q-5 108 -82.5 154.5
t-168.5 44.5v97h-100v-97q-128 -3 -189 -59t-61 -139q5 -104 82.5 -153.5t167.5 -48.5v-203q-84 2 -118 45t-33 107h-100q-6 -46 37.5 -142.5t213.5 -107.5v-98z" />
    <glyph glyph-name="longwb1" unicode="&#xe606;" 
d="M797 363l-243 97l151 373l-482 -425l243 -98l-151 -373z" />
    <glyph glyph-name="weibo" unicode="&#xe604;" 
d="M737 397q-10 3 -14.5 7t0.5 16q22 55 0 90q-23 31 -77 30.5t-123 -29.5q-2 -2 -13.5 -4t-8.5 14q11 34 9 61t-18 44q-41 36 -124 3.5t-171 -118.5q-64 -64 -98.5 -128.5t-34.5 -123.5q6 -112 118 -174.5t258 -63.5q185 5 294 84.5t112 169.5q-2 51 -35 81t-74 41zM440 74
q-114 -9 -195 33t-91 117q-4 75 66.5 132.5t184.5 70.5q115 9 195.5 -33t91.5 -117q4 -75 -67 -132.5t-185 -70.5zM899 669q-45 49 -105 67.5t-121 5.5v0q-14 -3 -21.5 -14.5t-4.5 -26t14.5 -22t26.5 -4.5q43 9 85.5 -4t74.5 -48.5t40.5 -79t-4.5 -85.5q-5 -14 1.5 -26.5
t20.5 -17t26 2t17 20.5v0q19 59 6.5 120.5t-56.5 111.5zM796 455q12 -3 22.5 2t14.5 17q9 29 3 59t-27.5 54t-50.5 33t-59 3q-13 -3 -19 -13t-3.5 -22t12.5 -18.5t22 -4.5v0q15 3 29 -1.5t24.5 -16t13.5 -26t-1 -29.5v0q-4 -12 1.5 -22.5t17.5 -14.5zM455 352
q-55 13 -105.5 -9.5t-75.5 -69.5q-23 -50 -3.5 -94t73.5 -63q58 -17 112.5 6t79.5 75q21 52 -2 95.5t-79 59.5zM401 190q-11 -18 -30.5 -24t-37 2t-22 24.5t6.5 34t30 23.5t36.5 -1.5t22.5 -24t-6 -34.5zM449 250q-5 -6 -12 -9t-14 0t-8.5 9.5t2 13t10.5 9t14 0t9 -9
t-1 -13.5z" />
    <glyph glyph-name="weixin" unicode="&#xe605;" 
d="M686 529q7 0 14 -1q-20 101 -107 166t-210 67q-136 -3 -226.5 -80.5t-94.5 -194.5q1 -67 34.5 -123t91.5 -94l3 -2l-31 -99l116 60l6 -2q48 -14 101 -14l22 1q-11 31 -11 65q3 107 85.5 177.5t206.5 73.5zM495 625q19 0 31.5 -12.5t12.5 -31.5t-12.5 -31.5t-32 -12.5
t-32 12.5t-12.5 31.5t12.5 31.5t32.5 12.5zM271 536q-19 1 -31.5 13.5t-12.5 31.5t12.5 31.5t32 12.5t32 -12.5t12.5 -31.5t-12.5 -31.5t-32.5 -13.5zM960 277q-3 98 -79.5 163.5t-191.5 67.5q-115 -2 -191.5 -67.5t-79.5 -163.5q3 -99 79.5 -164t191.5 -68q45 0 85 12l5 1
l98 -51l-26 84l2 2q49 32 77.5 79.5t29.5 104.5zM594 319q-16 0 -26.5 11t-10.5 27t10.5 26.5t27 10.5t27 -10.5t10.5 -26.5t-10.5 -27t-27.5 -11zM783 319q-16 0 -27 11t-11 27t11 26.5t27 10.5t27 -10.5t11 -26.5t-11 -27t-27 -11z" />
    <glyph glyph-name="qq" unicode="&#xe603;" 
d="M859 154q-12 -2 -31 14.5t-41 45.5q-10 -64 -57 -112q40 -12 63 -33.5t20 -45.5q-5 -30 -46 -45.5t-98 -9.5q-41 6 -71 20.5t-45 35.5q-12 -2 -24 -2l-14 1q-14 -21 -46 -36.5t-75 -20.5q-60 -6 -102.5 10.5t-48.5 46.5q-3 24 20.5 45t64.5 33q-50 51 -58 119
q-25 -29 -45.5 -43.5t-30.5 -9.5q-19 12 -19 59.5t28 107.5q21 42 48 70q-8 16 -8 37q0 19 6.5 33.5t16.5 20.5q-4 21 -4 42q3 114 79.5 190t191.5 79q115 -3 191.5 -79t79.5 -190q-1 -19 -4 -38v1q16 -1 26.5 -17.5t10.5 -41.5q0 -18 -6 -31.5t-15 -20.5q23 -31 41 -72
q22 -61 19 -109t-17 -54z" />
    <glyph glyph-name="pinglun" unicode="&#xe608;" 
d="M384 455h-128v-64h128v64zM895 775h-766q-40 1 -52.5 -12t-11.5 -52v-575q-1 -40 11.5 -52.5t52.5 -11.5h239l113 -112q1 -3 9.5 -9t19 -6t19 6.5t9.5 8.5l112 112h245q40 -1 52.5 11.5t11.5 52.5v575q1 37 -11.5 50.5t-52.5 13.5zM895 136h-255l-3 -1q-15 2 -27 -9
l-101 -100l-101 100q-11 11 -25 10h-254v575h766v-575zM768 444h-128v-64h128v64zM576 444h-128v-64h128v64z" />
    <glyph glyph-name="zhuanfa" unicode="&#xe607;" 
d="M893 767q42 2 54.5 -10t11.5 -51v-154q0 -13 -9 -21.5t-22.5 -8.5t-22.5 8.5t-10 21.5v111l-456 -459q-10 -9 -23 -9t-22.5 9t-9.5 21.5t10 21.5l455 459h-113q-14 0 -23 9t-9 22t9 21.5t23 8.5h157zM480 706h-351v-644h766v229q1 13 10 21.5t22.5 8.5t22.5 -8.5t9 -21.5
v-229q1 -35 -11.5 -48.5t-52.5 -12.5h-766q-40 -1 -52.5 11t-11.5 50v644q-1 35 12 48.5t52 12.5h351q14 0 23 -8.5t9 -21.5t-9 -22t-23 -9z" />
    <glyph glyph-name="activity" unicode="M" 
d="M955 473q-1 0 -2 -3l-2 -3q-2 -4 -5 -7q-11 -11 -25.5 -11t-25.5 10l-2 3q-10 13 -5.5 36.5t5.5 26.5q16 50 4 101.5t-52 92t-91 52.5t-101 -4q-3 -1 -27.5 -5.5t-38.5 4.5l-2 2q-11 11 -10.5 26t11.5 26q9 9 21 10q73 29 151 14t139 -74q61 -63 75.5 -142.5
t-17.5 -154.5zM594 681q2 1 8 6t11 7q43 27 94 21t91 -44q37 -39 44 -87.5t-17 -91.5q-2 -5 -7.5 -12.5t-7.5 -8.5l-5 -4q-10 -4 -21 -2.5t-19 9.5l-2 2q-8 8 -9.5 19t3.5 21v0q18 22 16 50.5t-24.5 51.5t-51 25t-50.5 -17v0q-12 -8 -25 -7.5t-23 10.5l-3 2
q-10 10 -10.5 23.5t8.5 25.5v1zM911 246q4 -21 -10 -35l-2 -3l-2 -1q-11 -9 -24 -10l-401 -106l-120 -121q-18 -18 -42 -18t-43 18l-171 173q-18 18 -18 42.5t18 42.5l120 121l109 411q4 15 17 22.5t28 3.5l8 -4l8 -4l2 -2l503 -506q15 -8 20 -24zM212 250l-15 -15
q-20 -21 -20 -47t20 -47l70 -70q20 -19 46 -19t47 19l15 16q19 20 19 46.5t-19 46.5l-70 70q-20 19 -46.5 19t-46.5 -19zM380 678l-86 -324l7 -5l171 -173q3 -3 5 -7l323 86z" />
    <glyph glyph-name="app" unicode="S" 
d="M596 405h154h104q4 -2 26 3.5t25 46.5v259q2 3 -4 25t-47 25h-258q-3 2 -25 -4t-26 -45v-256q-2 -3 3 -27t48 -27zM613 494v83v102q1 14 9 16t10 2h187q15 -2 17 -11.5t1 -10.5v-182q-1 -14 -8.5 -17t-8.5 -3h-188q-16 1 -18 10.5t-1 10.5zM429 764h-155h-104
q-3 2 -25 -4t-25 -45v-256q-3 -3 2 -27t48 -27h259q3 -2 25 3.5t25 46.5v259q2 3 -4 25t-46 25zM411 675v-81v-101q-1 -14 -8.5 -17t-8.5 -3h-188q-16 1 -18 10.5t-1 10.5v185q1 14 9.5 16t9.5 2h187q15 -2 17 -11.5t1 -10.5zM854 361h-154h-104q-3 2 -25 -4t-26 -46v-255
q-2 -3 3 -27t48 -28h258q4 -2 26 4t25 47v258q2 4 -4 26t-47 25zM837 272v-82v-100q-1 -14 -8.5 -17.5t-8.5 -2.5h-188q-16 1 -18 10.5t-1 10.5v185q1 14 9 16t10 1h187q15 -1 17 -10.5t1 -10.5zM429 361h-155h-104q-3 2 -25 -4t-25 -46v-255q-3 -3 2 -27t48 -28h259
q3 -2 25 4t25 47v258q2 4 -4 26t-46 25zM411 272v-82v-100q-1 -14 -8.5 -17.5t-8.5 -2.5h-188q-16 1 -18 10.5t-1 10.5v185q1 14 9.5 16t9.5 1h187q15 -1 17 -10.5t1 -10.5z" />
    <glyph glyph-name="commodity" unicode="N" 
d="M819 249q3 4 5 9l130 334q6 8 6 20.5t-8 21.5q-6 7 -15.5 10.5t-19.5 1.5h-648l-43 181q-4 14 -15.5 21.5t-25.5 4.5l-2 -1h-85q-15 0 -24.5 -9.5t-9.5 -24t9.5 -24t24.5 -10.5h67l150 -625q-30 -11 -49 -37.5t-20 -60.5q1 -44 30.5 -73.5t73.5 -30.5q44 1 73.5 30.5
t30.5 73.5q0 19 -6 35h217q-6 -16 -6 -35q1 -44 30.5 -73.5t73.5 -30.5q44 1 73.5 30.5t30.5 73.5q-1 44 -30.5 73.5t-73.5 30.5l-11 -1h-358q-4 0 -9 -1l-17 71h423q18 1 28 15zM763 97q15 -1 24.5 -10.5t9.5 -24t-9.5 -24.5t-24 -10t-24.5 10t-10 24.5t10 24t24 10.5z
M385 62q0 -14 -10 -24t-24.5 -10t-24.5 10t-10 24.5t10 24t24.5 9.5t24.5 -9.5t10 -24.5zM352 302l-66 276h589l-107 -276h-416z" />
    <glyph glyph-name="commonweal" unicode="W" 
d="M955 272q-4 -47 -41 -108t-140 -113q-8 -12 -133.5 -40t-280.5 73q-65 44 -94.5 115.5t10.5 136.5q36 42 77.5 46.5t81.5 -23.5q0 -4 14 -12.5t34 16.5q3 6 57.5 18.5t119.5 -33.5q11 -9 23.5 -28.5t12.5 -48.5q2 -33 -16 -62.5t-70 -60.5q-19 -13 -41 -24l-25 -12
q-14 -5 -18.5 -3.5t-3.5 1.5q10 6 35 23q0 3 -1 2.5t-2 0.5q-17 -12 -31 -18l-14 -7q-13 -1 -16 1.5l-3 2.5q9 5 24 14l16 10q0 4 -2 3l-2 -1q-23 -14 -35.5 -19l-12.5 -5q-6 1 -5.5 5t1.5 4q5 5 25 16l23 14l27 21q25 20 52 46q32 34 17.5 62t-58.5 23q-2 0 -21.5 -5.5
t-43.5 -22.5q-2 -3 -23 -11.5t-41 13.5q-5 7 -52.5 24t-69.5 -40q-4 -30 14.5 -71.5t91.5 -83.5q22 -13 69.5 -25.5t97.5 -12.5q78 4 132.5 29t83.5 46q6 4 44.5 48.5t42.5 93.5q-3 59 -45.5 109t-92.5 75q0 6 8 16l19 29q21 38 -17.5 51.5t-95.5 -20.5q-139 -65 -148 0
t-1 70q7 40 -15.5 37.5t-93.5 -41.5q-28 -16 -65 -48l-68 -59q-101 -92 -119.5 -163t-13.5 -75q0 1 0 -5l2 -25q3 -19 14.5 -43t22.5 -37q26 -28 41.5 -38t16.5 -10l31 -16q28 -7 39.5 -6t14.5 -1q7 -4 7 -5.5t-1 -1.5q-6 -4 -25 -5l-21 -1q-1 -3 2 -4l2 -1l36 3
q18 4 21 -0.5t2 -5.5q-6 -4 -25 -6l-21 -2q-4 0 0 -2l5 -1q11 -1 33 1l23 3q8 -16 -9.5 -23t-20.5 -6q-60 -3 -92.5 13.5t-57.5 34.5q-7 4 -23.5 18.5t-23.5 22.5q-41 52 -56 109.5t-5 109.5q-3 3 24 72t130 168q104 90 180.5 132t80.5 42q150 18 134.5 -50t-29.5 -80
q-7 -22 -2 -24t7 0q26 14 55 25l32 12q147 46 162.5 -26.5t7.5 -87.5q-7 -16 -8 -23.5t0 -7.5q3 -1 1.5 -1t2.5 -2q17 -12 33.5 -27t31.5 -31q11 -12 18 -27q16 -23 24.5 -57.5t0.5 -75.5z" />
    <glyph glyph-name="music" unicode="K" 
d="M894 380q-2 -16 -16 -26l-639 -411q-6 -5 -14 -6l-3 -1q-2 -1 -6 -1l-9 2q-5 1 -8.5 3t-6.5 4l-7 8l-4 7q-2 7 -2 14v0v0q-1 4 0 7v815v3l2 8t3 8l1 3l2 1q3 4 7 7l4 2q4 3 10 4l8 2l10 -2q6 -1 11 -5l642 -407q9 -7 13 -17.5t2 -21.5zM254 43l535 343l-535 340v-683z
" />
    <glyph glyph-name="picture" unicode="&#xa1;" 
d="M890 6h-756q-29 1 -48.5 20.5t-19.5 48.5v618q0 29 19.5 48.5t48.5 20.5h756q29 -1 48.5 -20.5t19.5 -48.5v-618q0 -29 -19.5 -48.5t-48.5 -20.5zM134 99q0 -10 7 -17t18 -7h704q9 0 16 5l-157 157l-91 -91q-6 -5 -13 -5t-12 5l-3 3q-5 1 -9 4l-268 247l-187 -186
q-2 -3 -5 -4v-111zM890 668q0 10 -7 17t-18 8h-706q-11 -1 -18 -8t-7 -17v-362l167 168l11 11q5 5 12 5t13 -5l278 -257l95 95q6 5 13 5t12 -5l155 -155v500zM639 464q-20 1 -32.5 13.5t-12.5 32t12.5 32t32 12.5t32.5 -12.5t13 -32t-13 -32t-32 -13.5z" />
    <glyph glyph-name="preferential" unicode="T" 
d="M899 832q54 -6 53 -66l1 -8v-308q0 -14 -6.5 -24t-16.5 -15l-465 -465q-11 -11 -25.5 -11t-25.5 11l-60 63v-1l-261 260q-20 23 -22 51.5t14 53.5l449 450q14 12 31 9l334 -1v1zM575 761l-436 -437l300 -301l443 442v295zM667 427q-51 1 -84.5 34.5t-35.5 84.5
q2 51 35.5 85t84.5 35q51 -1 84.5 -35t35.5 -85q-2 -51 -35.5 -84.5t-84.5 -34.5zM667 593q-20 0 -33 -13.5t-13 -33.5t13 -33.5t33 -13.5t33.5 13.5t13.5 33.5t-13.5 33.5t-33.5 13.5z" />
    <glyph glyph-name="show" unicode="r" 
d="M910 326l-199 213l200 213q12 14 10 31q2 6 2 12q0 16 -10.5 26.5t-26.5 11.5h-748q-13 0 -22 -7t-13 -18q-3 -7 -4 -15v-490v-7v-7v-316q1 -16 11.5 -26.5t26.5 -10.5t26.5 10.5t11.5 26.5v286h713q16 0 26.5 10.5t10.5 26.5q-1 19 -15 30zM175 758h639l-180 -192
q-11 -12 -11 -27t11 -27l167 -178h-626v424z" />
    <glyph glyph-name="L" unicode="L" 
d="M924 56q-16 1 -27 12l-179 105v-45q-1 -31 -21.5 -51t-51.5 -21h-509q-31 1 -51.5 21.5t-21.5 51.5v508q1 31 21.5 51.5t51.5 21.5h509q30 -1 50.5 -21t21.5 -51l1 -43l179 104q10 12 26 12.5t26 -9.5t11 -24l1 -2v-583q-1 -16 -11 -26t-26 -11zM709 505q-11 -12 -28 -13
l-5 1q-18 2 -27.5 19t-3.5 32v58q-1 15 -11 25.5t-26 10.5h-435q-16 0 -26 -10.5t-11 -25.5v-437q1 -15 11 -25.5t26 -10.5h435q16 0 26 10.5t11 25.5v58q-6 16 2 33q8 12 20 16.5t24 -0.5q9 -2 16 -9l181 -105v452z" />
    <glyph glyph-name="vote" unicode="R" 
d="M926 102h-82v503q0 14 -9 23t-23 9h-157v104q0 13 -9.5 22t-22.5 10h-198q-14 -1 -23 -10t-9 -22v-240h-165q-14 0 -23 -9t-9 -23v-367h-98q-14 0 -23.5 -9t-9.5 -23t9.5 -23t23.5 -9h828q14 0 23.5 9t9.5 23t-9.5 23t-23.5 9zM393 102h-133v335h133v-335zM590 102h-133
v606h133v-606zM780 102h-125v471h125v-471z" />
    <glyph glyph-name="movie" unicode="U" 
d="M199 385q1 28 20 47t48 19t48 -19t19 -47.5t-19 -47.5t-48 -19t-48 19t-20 48zM490 94q-29 0 -47.5 19t-18.5 48t18.5 48t47.5 19t48 -19t19 -48t-19 -48t-48 -19zM535 385q0 -20 -13 -33t-32 -13t-32 13t-13 32.5t13 32.5t32 13t32 -13t13 -32zM423 608q1 29 19.5 48
t47.5 19t48 -19t19 -48t-19 -48t-48 -19t-47.5 19t-19.5 48zM713 317q-28 1 -47.5 20t-19.5 47.5t19.5 47.5t48 19t47.5 -19t19 -47.5t-19 -47.5t-48 -20zM925 -40q-13 0 -23 9l-1 -1q-23 28 -56.5 44t-72.5 16q-53 -1 -94 -28v1q-31 -15 -61 -23.5t-56 -12.5l1 1
q-35 -6 -72 -7q-180 5 -300 125t-125 300q5 180 125 300t300 125q181 -5 300.5 -125t124.5 -300q-1 -95 -39 -176q-1 -8 -7 -15l-1 -2h-1q-9 -9 -23 -9t-23.5 9.5t-9.5 23.5q0 7 2 12l-2 2q35 71 36 156q-3 151 -104 252t-253 105q-152 -4 -252.5 -105t-104.5 -252
q4 -152 104.5 -253t252.5 -105q49 1 94 13t85 35l-1 -5q48 23 103 23q50 0 93 -18.5t75 -51.5q19 -9 20 -30q-1 -14 -10.5 -23.5t-23.5 -9.5z" />
    <glyph glyph-name="game" unicode="P" 
d="M667 82q-6 1 -12 1h-286l-12 -1q-137 4 -228 95.5t-95 228.5q4 137 95 228t228 94h15h280h15q137 -3 228 -94t95 -228q-4 -137 -95 -228.5t-228 -95.5zM664 657q-15 0 -31 -2h-298q-12 0 -24 -4q-89 -18 -146 -85t-59 -161q2 -92 57 -158.5t142 -86.5q14 -6 30 -6l295 1
q17 -3 34 -3q108 3 179.5 74t73.5 178q-2 108 -73.5 179t-179.5 74zM727 298h-72v71h72v71h71v-71h-71v-71zM655 512h72v-71h-72v71zM584 441h71v-72h-71v72zM404 369h-36v-34q0 -15 -10 -25.5t-25 -10.5t-25.5 10.5t-10.5 25.5v34h-36q-16 1 -26 11t-10 25.5t10 25.5t26 10
h36v36q0 16 10.5 26t25.5 10t25 -10t10 -26v-36h36q15 0 25 -10t10 -25.5t-10 -25.5t-25 -11z" />
    <glyph glyph-name="place" unicode="2" 
d="M780 264q-2 -5 -6 -9l-230 -297q-3 -7 -8 -12q-10 -10 -24 -10t-25 10q-5 5 -7 12l-231 297q-5 5 -7 12q-37 45 -57 100t-20 117q3 148 101 246t246 102q148 -4 246 -102t101 -246q0 -63 -20.5 -119t-58.5 -101zM511 765q-119 -3 -198.5 -82.5t-82.5 -199.5
q0 -51 17 -96.5t48 -82.5l1 -1l7 -8q7 -9 15 -16h-2l99 -128l-1 1l98 -127l97 126h-2l55 70q49 62 60 76l5 6v0q31 37 48 82.5t18 97.5q-3 120 -82.5 199.5t-199.5 82.5zM512 338q-62 2 -103.5 43t-42.5 103q1 62 42.5 103t103.5 43q62 -2 103.5 -43t42.5 -103
q-1 -62 -42.5 -103t-103.5 -43zM511 564q-34 -1 -56.5 -23.5t-22.5 -56.5t22.5 -56.5t57 -22.5t57 22.5t22.5 56.5t-22.5 56.5t-57.5 23.5z" />
    <glyph glyph-name="book" unicode="Q" 
d="M865 -84h-706q-15 0 -25 10t-11 26v822q1 15 11 25t25 11h246v-2q11 -3 18 -12t7 -21t-7 -20.5t-18 -12.5v-2h-192q-7 -1 -12 -6t-6 -12v-717q1 -8 6 -13t12 -5h599q7 0 12 5t6 13v717q-1 7 -6 12t-12 6h-17v1v0q-15 0 -24.5 9.5t-9.5 24.5t9.5 24.5t24.5 10.5h70
q15 -1 25 -11t11 -25v-822q-1 -16 -11 -26t-25 -10zM608 452l-130 -122v410h-2v70h261v-188v0l-1 -292zM665 740h-117v-248l61 54l56 -54v248z" />
    <glyph glyph-name="topic" unicode="#" 
d="M934 556h-108q-13 1 -21.5 12.5t-7 25.5t11.5 25t24 12h108q13 -1 21.5 -12t7 -25t-11.5 -25.5t-24 -12.5zM908 254q13 0 21.5 -11.5t7 -25.5t-11.5 -25.5t-24 -11.5h-183l-16 -184q-2 -13 -14 -22.5t-26 -9.5t-24.5 9.5t-10.5 22.5l16 184h-226q-14 0 -22 11.5t-7 25.5
t11.5 25.5t23.5 11.5h227l49 560q2 14 14 23t26 9t24.5 -9t9.5 -23l-49 -560h184zM601 556h-227l-49 -560q-2 -13 -14 -22.5t-26 -9.5t-24.5 9.5t-9.5 22.5l49 560h-184q-13 1 -21.5 12.5t-7 25.5t11.5 25t24 12h183l16 183q2 14 14 23t26 9t24.5 -9t10.5 -23l-16 -183h226
q14 -1 22 -12t7 -25t-11 -25.5t-24 -12.5zM90 254h108q13 0 21.5 -11.5t7 -25.5t-11.5 -25.5t-24 -11.5h-108q-13 0 -21.5 11.5t-7 25.5t11.5 25.5t24 11.5z" />
    <glyph glyph-name="zhuanzhang" unicode="&#xff;" 
d="M834 474h-284v-151h284q8 0 13 -5.5t6 -13.5v-38q-1 -8 -6 -13t-13 -6h-284v-308q0 -8 -5.5 -13.5t-13.5 -5.5h-38q-8 0 -13.5 5.5t-5.5 13.5v308h-284q-8 1 -13 6t-6 13v38q1 8 6 13.5t13 5.5h284v151h-284q-8 1 -13 6t-6 13v38q1 8 6 13.5t13 5.5h221l-191 191
q-11 12 -11 27t11.5 26t26.5 11t26 -11l239 -239l239 239q11 11 26 11t26.5 -11t11.5 -26t-11 -27l-191 -191h221q8 0 13 -5.5t6 -13.5v-38q-1 -8 -6 -13t-13 -6z" />
    <glyph glyph-name="replay" unicode="y" 
d="M314 181v202v198q0 14 10 21t24 0l145 -98q120 -81 153 -102q11 -8 11 -21t-11 -21l-148 -99q-121 -81 -151 -100q-12 -7 -22.5 -1t-10.5 21zM1009 584q-30 -76 -48 -151q-18 -70 -77 -38l-58 31q-53 28 -90 44q-74 33 22 68q28 11 56 23q-50 96 -140 153t-204 59
q-166 -4 -275.5 -114t-113.5 -275q4 -165 113.5 -275t275.5 -114q85 1 158.5 34.5t127.5 92.5q0 1 10.5 7.5t20.5 7.5q14 -1 23.5 -9.5t11.5 -20.5l-1 -10q-1 -8 -5 -15q-3 -4 -6 -7q-64 -70 -151 -111t-189 -42q-197 5 -327 135.5t-135 326.5q1 77 26 147q1 6 3 11
q51 135 166 218.5t267 85.5q137 -2 245 -71.5t166 -185.5q33 13 65 27q93 43 63 -32z" />
    <glyph glyph-name="favorite" unicode="&#xfb;" 
d="M283 -34l-10 3q-32 8 -50 34l-6 10l31 254l-177 190l1 13q2 31 24 54l7 7l246 47l129 234l13 4q22 5 44 -1l12 -3l129 -234l245 -47l6 -7q23 -23 25 -55l1 -13l-177 -189l31 -248l-5 -8q-17 -31 -50 -41l-11 -3l-229 107zM138 475l175 -188l-32 -254l231 109l231 -109
l1 1l-32 253l175 188l-251 48l-124 225l-123 -225z" />
    <glyph glyph-name="zan" unicode="&#xf1;" 
d="M958 345q-7 -37 -39 -160l-36 -140q-13 -39 -49 -63q-27 -17 -56 -18l-5 -1h-680h1q-12 1 -20 9t-9 19l1 1l-1 3v413v2q0 13 8.5 21t21.5 9h87v0h2q102 1 165.5 57.5t77.5 156.5l1 13q2 11 2 22q0 23 8.5 43.5t22.5 36.5l14 13q2 1 26 12.5t47 13.5q50 -1 83.5 -35
t34.5 -84q0 -9 -2 -17q3 -21 3 -43q1 -44 0 -66t-18 -60h173q9 0 17 -1h-2h2v0q29 -1 54 -15t41 -40q11 -19 19 -49.5t5 -52.5zM243 380h-50h-11v0h-57v-358h118v358zM881 416q-13 16 -28.5 22t-18.5 6h-204q-12 2 -30.5 20.5t-22.5 26.5q-1 6 11 23.5t21 45.5l0.5 18.5
t-3.5 50.5q-1 11 0 30l1 29q-1 26 -17.5 42.5t-41.5 17.5q-16 0 -29.5 -8t-20.5 -22l-4 -24q-4 -24 -8 -53q-3 -20 -10 -46h-1q-21 -72 -62.5 -118.5t-110.5 -73.5v-381h471h10q8 1 11 4q14 19 20.5 34.5t6.5 16.5l73 266q4 22 1 39.5t-14 33.5zM96 440h-1h-2h3zM839 502v0
v0v0z" />
    <glyph glyph-name="star" unicode="&#xe609;" 
d="M948 451l-173 -68l-65 -189q-8 -12 -18.5 -3.5t-11.5 10.5v-1l-118 147l-180 3l-1 1q-20 1 -25.5 7t-4.5 13l109 165l-58 155q-4 14 2.5 31t40.5 10l165 -41l145 100q3 3 22 6t30 -37l-3 -164l150 -111q13 -12 7.5 -21t-13.5 -13zM879 490l-112 84l1 123q-8 30 -22.5 28
t-15.5 -5l-109 -75l-124 31q-26 5 -31 -7.5t-2 -23.5l44 -117l-82 -124q-1 -5 3 -9.5t20 -5.5v0l135 -2l89 -111v1q1 -2 8.5 -8t14.5 2l48 142l131 51q6 3 10 10t-6 16zM355 531q-65 -68 -131 -191.5t-151 -330.5q-11 -28 -11.5 -24t4.5 32q56 184 126 340.5t136 225.5
q8 8 20 12q6 3 17.5 1.5t16.5 -11.5q5 -21 -9.5 -37.5t-17.5 -16.5zM85 2q15 43 101.5 174.5t129.5 140.5q5 0 10.5 -2.5t7.5 -5.5q17 -34 -42.5 -67.5t-206.5 -239.5zM591 220q7 1 12 -1.5t9 -6.5q15 -11 5 -25q-9 -10 -18 -11.5t-10 -0.5q-112 -14 -235.5 -57.5
t-254.5 -128.5q-28 -23 -23 -17.5t22 23.5q125 104 246.5 166t246.5 59z" />
    <glyph glyph-name="arrows_u" unicode="&#xe60c;" 
d="M787 590l-232 232q-13 12 -30 9q-13 0 -23 -10l-232 -232q-10 -10 -10 -24t10.5 -24t24 -10t24.5 10l176 176v-747q0 -14 9.5 -24t24.5 -10t24.5 10t9.5 24v747l175 -175q11 -10 24.5 -10t24 10t10.5 24t-10 24z" />
    <glyph glyph-name="arrowsd" unicode="&#xe60d;" 
d="M787 227q-11 10 -24.5 10t-24.5 -10l-175 -176v747q-1 14 -10.5 24t-24 10t-24.5 -10t-10 -24v-747l-175 175q-11 10 -24.5 10t-24 -10t-10.5 -24t11 -24l231 -232q13 -12 30 -9q13 0 23 10l232 232q10 10 10 24t-10 24z" />
    <glyph glyph-name="suptopic" unicode="&#xe60a;" 
d="M1005 541q-5 13 -15 21t-23 10h-284l-128 256q-6 12 -17.5 18t-24 6t-24 -6t-17.5 -18l-128 -256h-286q-13 -2 -23 -10.5t-14 -21.5t-1 -26t13 -22l206 -240l-54 -279q-2 -14 3 -26t15.5 -20t23.5 -9t25 5l262 106l255 -108q12 -6 25 -5t24 9t16 20.5t3 25.5l-49 281
l205 242q9 9 12.5 21.5t-0.5 25.5zM694 302q-17 -17 -14 -42l51 -231l-196 104l-21 5l-22 -5l-199 -110l52 236q4 24 -13 41l-154 166h221q11 2 20 10t15 19l79 191l79 -191q5 -11 14 -19t21 -10h214z" />
    <glyph glyph-name="live" unicode="&#xe60f;" horiz-adv-x="1025" 
d="M210 512h-51v-256h102v51h-51v205zM452 384l-26 128h-51l51 -256h51l51 256h-51zM661 461v51h-103v-256h103v51h-52v51h52v52h-52v51h52zM291 512h51v-256h-51v256zM1004 629q-20 15 -44 9l-141 -37v90q0 22 -14.5 36.5t-36.5 14.5h-717q-21 0 -35.5 -14.5t-15.5 -36.5
v-614q1 -22 15.5 -36.5t35.5 -14.5h717q22 0 36.5 14.5t14.5 36.5v90l141 -37q6 -2 13 -2q17 0 31 11q19 15 20 40v410q-1 25 -20 40zM717 128h-615v512h615v-512zM922 246l-103 27v222l103 27v-276z" />
    <glyph glyph-name="icon" unicode="&#xe610;" 
d="M35 225h49v166h134v43h-134v126h145v44h-194v-379zM399 604l-143 -379h54l36 104h156l38 -104h54l-143 379h-52zM361 372l56 157q4 9 6 26h2q3 -18 5 -26l57 -157h-126zM953 166q-27 0 -49 13t-53 47q62 15 95.5 66t33.5 127q0 85 -47.5 138t-124.5 53q-86 0 -135 -54
t-49 -146q0 -83 48.5 -137.5t124.5 -53.5q55 -64 86 -81t66 -17q24 0 42 6v46q-15 -7 -38 -7zM800 262q-56 0 -90.5 41.5t-34.5 110t35.5 110.5t93.5 42t91.5 -40t33.5 -112t-34 -112t-95 -40z" />
    <glyph glyph-name="link" unicode="&#xe60e;" 
d="M959 7l-170 170q38 51 58.5 112.5t21.5 130.5q-5 173 -120 288.5t-288 119.5q-174 -4 -289 -119.5t-119 -288.5q4 -174 119 -289.5t289 -119.5q68 0 129 21t113 59l170 -170q15 -15 37 -12t40.5 21.5t20.5 40t-12 36.5zM461 128q-124 3 -206.5 85.5t-85.5 206.5
q3 124 85.5 206t206.5 86q124 -4 206 -86t85 -206q-3 -124 -85 -206.5t-206 -85.5z" />
    <glyph glyph-name="gouwu" unicode="&#xcf;" 
d="M782 596q0 20 -12.5 33.5t-32.5 13.5h-90v47q-1 60 -39.5 100t-95.5 42q-57 -2 -95.5 -42t-39.5 -100v-47h-90q-20 0 -32.5 -13.5t-13.5 -33.5l-135 -613q1 -20 13.5 -33.5t31.5 -13.5h722q19 0 31.5 13.5t13.5 33.5zM422 690q1 40 26.5 67t63.5 27t63.5 -27t26.5 -67
v-47h-180v47zM151 -17l136 613h90v-98q-27 -11 -38.5 -36.5t-2 -54t33.5 -40.5t51.5 -2t39 35.5t2.5 53.5q-5 16 -16 27t-25 17v98h180v-98q-27 -11 -38.5 -36.5t-2 -54t34 -40.5t51.5 -2t38.5 35.5t2.5 53.5q-5 16 -15.5 27t-25.5 17v98h90l136 -613h-722zM422 431
q0 -10 -6.5 -17t-16 -7t-16 7t-6.5 17t6.5 16.5t16 6.5t16 -6.5t6.5 -16.5zM647 431q0 -10 -6.5 -17t-16 -7t-16 7t-6.5 17t6.5 16.5t16 6.5t16 -6.5t6.5 -16.5z" />
    <glyph glyph-name="fufei" unicode="&#xd1;" 
d="M665 614q1 -32 23 -54t54.5 -22t54 22t21.5 54.5t-21.5 54t-54 21.5t-54.5 -21.5t-23 -54.5zM664 614q1 -32 23 -53.5t54.5 -21.5t54.5 21.5t22 54t-22 54t-54.5 21.5t-54.5 -21.5t-23 -54.5zM587 26h-462v260l142 141l157 -156q15 -15 35.5 -15t36.5 15q4 4 7 8l4 4
l81 80l41 -41l73 72l-79 78q-16 15 -36 15t-36 -15q-4 -3 -7 -8l-5 -4l-80 -80l-144 144l-5 4q-3 4 -7 8q-15 15 -35.5 15t-36.5 -15l-106 -105v311h719v-307q1 -21 15.5 -35.5t36 -14.5t36 14.5t15.5 35.5v359q-1 21 -15.5 35.5t-35.5 15.5h-822q-22 -1 -36.5 -15.5
t-15.5 -35.5v-819q1 -22 15.5 -36.5t36.5 -15.5h513q22 1 36.5 15.5t14.5 36t-14.5 36t-36.5 15.5zM973 103q21 0 35.5 14.5t14.5 36.5t-14.5 36t-35.5 15h-30l51 51q15 15 15 36t-15.5 36.5t-36 15.5t-36.5 -15l-77 -77l-77 77q-16 15 -36.5 15t-35.5 -15.5t-15 -36.5
t14 -36l52 -51h-30q-22 -1 -36.5 -15t-14.5 -36t14.5 -36.5t36.5 -14.5h77v-26h-52q-21 -1 -35.5 -15t-14.5 -36t14.5 -36.5t35.5 -14.5h52v-52q0 -21 14.5 -35.5t36.5 -14.5t36.5 14.5t15.5 35.5v52h51q22 0 36.5 14.5t14.5 36.5t-14.5 36t-36.5 15h-51v26h77z" />
    <glyph glyph-name="kongjian" unicode="&#xe611;" 
d="M330 200q-3 0 -6 9t25 28l224 147q1 2 6.5 19t-6.5 21q-29 3 -143 3t-140 -3q3 9 126 33.5t318 -33.5l-273 -178q-2 -1 -3 -5t12 -4q19 0 108 -6t157 -9l-4 24v15.5t10 21.5q21 17 103 94l93 88l-262 39q-1 -1 -13.5 1t-23.5 17q-17 30 -70 141l-61 125l-130 -266
q0 -1 -8 -8.5t-30 -9.5q-35 -4 -137 -20l-115 -19l196 -182q1 0 7 -8t3 -29q-7 -35 -26 -144l-21 -122l246 121q0 1 12.5 3.5t27.5 -3.5q28 -13 129 -64l114 -57l-38 232q-54 -15 -162 -25t-245 13z" />
    <glyph glyph-name="weibo_publish_icon_k" unicode="&#xe6e9;" horiz-adv-x="1152" 
d="M100 874h972q33 0 55.5 -23.5t23.5 -56.5v-838q-1 -33 -23.5 -56.5t-55.5 -24.5l-989 1q-34 1 -56 24t-23 56v837q1 34 23.5 57t55.5 24h17zM1025 36v566q0 16 -10.5 26.5t-26.5 10.5h-823q-15 0 -26 -11t-11 -26v-565q1 -16 11.5 -27t25.5 -11h823q16 0 26.5 11t10.5 27
v-1zM191 781q-9 0 -15.5 -6.5t-6.5 -16.5v-23q0 -9 6.5 -15.5t15.5 -6.5h22q9 0 15.5 6.5t6.5 15.5v23q0 10 -6.5 16.5t-15.5 6.5h-22zM362 781h-22q-9 0 -15 -7t-6 -16v-23q0 -9 6 -15.5t15 -6.5h22q10 0 16 6.5t6 15.5v23q0 9 -6 16t-16 7zM512 781h-22q-9 0 -15.5 -7
t-6.5 -16v-23q0 -9 6.5 -15.5t15.5 -6.5h22q9 0 15.5 6.5t6.5 15.5v23q0 9 -6.5 16t-15.5 7zM661 781h-22q-9 0 -15.5 -7t-6.5 -16v-23q0 -9 6.5 -15.5t15.5 -6.5h22q9 0 15.5 6.5t6.5 15.5v23q0 9 -6.5 16t-15.5 7zM810 781h-22q-9 0 -15 -7t-6 -16v-23q0 -9 6 -15.5
t15 -6.5h22q10 0 16 6.5t6 15.5v23q0 9 -6 16t-16 7zM960 781h-22q-9 0 -15.5 -7t-6.5 -16v-23q0 -9 6.5 -15.5t15.5 -6.5h22q9 0 15.5 6.5t6.5 15.5v23q0 9 -6.5 16t-15.5 7zM173 538h90v-179h203v179h90v-436h-90v167h-203v-167h-90v436zM616 538h157q104 0 157 -59
q52 -55 52 -159t-52 -159q-53 -59 -157 -59h-157v436zM704 444v-256h60q66 0 95.5 31t29.5 98t-29.5 97.5t-95.5 29.5h-60z" />
    <glyph glyph-name="weibo_navigationbar_" unicode="&#xe60b;" horiz-adv-x="1137" 
d="M686 776h-2q-25 2 -41 18.5t-16 41.5t18 43t44 17h109q170 -2 255 -121t85 -332q3 -165 -73.5 -304.5t-269.5 -148.5l17 -74q2 -31 -22 -41t-43 12l-109 127q-10 15 -11.5 32t5.5 33q11 20 25.5 26.5t30.5 6.5h91q117 3 174 92t57 237q2 142 -52.5 236.5t-159.5 98.5
h-112zM431 768h-78q-149 -7 -190.5 -114t-37.5 -228q1 -119 60 -214t170 -101h66q19 3 36 -4t27.5 -23t11 -34.5t-9.5 -35t-26.5 -24.5t-35.5 -6h-71q-160 2 -255.5 117.5t-98 325.5t76.5 338t277 131l70 -1q18 3 34 -4t27 -22t12 -33t-7.5 -34t-23.5 -25t-34 -9zM722 479
q12 -6 20 -15t8 -26q-1 -14 -8.5 -22.5t-19.5 -15.5l-198 -115q-12 -7 -26.5 -12t-27.5 2t-15 18.5t-1 25.5v249q-1 14 1.5 23t14 16t23 5t23.5 -9z" />
    <glyph glyph-name="weibo_sidebar_icon_k" unicode="&#xe6ff;" horiz-adv-x="1228" 
d="M731 788q-20 0 -37.5 13.5t-18 40t15 40.5t40.5 14h110q169 -2 253 -121t84 -332q3 -165 -70.5 -303t-272.5 -147l20 -77q2 -31 -21.5 -41t-42.5 12l-95 97q-12 10 -19 31.5t4 45.5q11 19 28.5 24.5t33.5 4.5q24 0 92 3q135 11 185.5 115.5t49.5 234.5q3 132 -48 235
t-181 110h-110zM401 788q-157 -9 -199.5 -124.5t-38.5 -237.5q-1 -120 55 -224.5t185 -111.5h76q26 0 44 -13t18 -39.5t-18 -40t-44 -13.5h-78q-159 2 -253 118t-97 325.5t75.5 337.5t274.5 131h77q27 0 44 -13.5t16.5 -41.5t-18.5 -40.5t-41 -12.5h-78zM784 489
q14 -8 23 -18.5t10 -30.5q-1 -17 -10 -27t-23 -18l-233 -138q-14 -9 -31 -15t-32 2.5t-17.5 22t-1.5 30.5v299q-1 16 2 27t16.5 19.5t27 6t27.5 -10.5z" />
    <glyph glyph-name="v1" unicode="&#xe61d;" 
d="M682 575l-340 -322v322h-84v-445h84l467 445h-127zM512 893q-216 -3 -358 -147.5t-151 -361.5q3 -216 147.5 -358t361.5 -151q216 3 358 147.5t151 361.5q-3 216 -147.5 358t-361.5 151zM512 -40q-192 3 -306.5 117.5t-117.5 306.5q3 192 117.5 306.5t306.5 117.5
q192 -3 306.5 -117.5t117.5 -306.5q-3 -192 -117.5 -306.5t-306.5 -117.5zM766 384h-84v-85h-85v-85h85v-84h84v84h85v85h-85v85z" />
    <glyph glyph-name="Vsp" unicode="&#xe61f;" 
d="M691 772l-511 -562v562h-153v-817h153l715 817h-204zM844 262v153h-153v-153h-153v-154h153v-153h153v153h153v154h-153z" />
  </font>
</defs>
</svg>
